<?xml version="1.0" encoding="UTF-8"?>
<svg version="1.1" xmlns="http://www.w3.org/2000/svg" width="737" height="338">
<path d="M0 0 C5.07959449 4.40665676 8.24566722 8.52186231 11.0625 14.625 C13.80838929 11.95987216 16.35040481 9.29319374 18.75 6.3125 C25.86260818 -2.00070189 33.3876984 -7.16206314 44.26953125 -8.68359375 C53.32575731 -9.22207206 61.6656795 -6.00480852 68.5 -0.1875 C77.03286147 8.19470099 79.96426588 17.14600791 80.375 28.9375 C80.22780683 36.31818619 79.53658672 46.17749349 74.0625 51.625 C71.03149414 52.10742188 71.03149414 52.10742188 67.34765625 52.09375 C66.36943153 52.10432434 66.36943153 52.10432434 65.3714447 52.1151123 C62.58637111 52.14459037 59.80199732 52.12797926 57.0168457 52.11572266 C54.98085882 52.11333888 52.94600266 52.1342753 50.91015625 52.15625 C49.0849646 52.14948242 49.0849646 52.14948242 47.22290039 52.14257812 C43.47059309 52.71535211 42.36513977 53.67882028 40.0625 56.625 C38.82737921 58.75809192 38.82737921 58.75809192 38.0625 60.625 C38.84625 59.84125 39.63 59.0575 40.4375 58.25 C45.0625 53.625 45.0625 53.625 47.76806641 53.39794922 C48.88874512 53.40842285 50.00942383 53.41889648 51.1640625 53.4296875 C52.37578125 53.43613281 53.5875 53.44257813 54.8359375 53.44921875 C56.10695313 53.46597656 57.37796875 53.48273438 58.6875 53.5 C59.96625 53.50902344 61.245 53.51804688 62.5625 53.52734375 C65.72935167 53.55097697 68.89583424 53.58392371 72.0625 53.625 C71.30003316 58.27786427 69.52674996 61.17403069 66.625 64.8125 C66.17761475 65.38129883 65.73022949 65.95009766 65.26928711 66.53613281 C55.06149615 79.28380662 42.40552031 89.33388557 29.0625 98.625 C28.10859375 99.29144531 27.1546875 99.95789063 26.171875 100.64453125 C16.92610825 106.84626824 16.92610825 106.84626824 11.0625 106.625 C5.42302051 104.78425513 0.75615014 102.46532321 -4.125 99.125 C-4.76501953 98.69356689 -5.40503906 98.26213379 -6.06445312 97.81762695 C-11.73654365 93.91701485 -16.94128114 89.55835001 -22.12109375 85.03515625 C-24.3586892 83.12032075 -26.5671476 81.39772806 -29 79.75 C-31.95120918 77.61508272 -33.77699831 75.53050228 -35.9375 72.625 C-36.618125 71.965 -37.29875 71.305 -38 70.625 C-40.11760809 68.43908197 -41.40896184 66.25408563 -42.9375 63.625 C-44.2559799 61.82598977 -45.59181708 60.04326505 -46.94921875 58.2734375 C-47.9375 56.625 -47.9375 56.625 -47.9375 53.625 C-32.5925 53.13 -32.5925 53.13 -16.9375 52.625 C-16.6075 50.645 -16.2775 48.665 -15.9375 46.625 C-16.370625 47.8315625 -16.370625 47.8315625 -16.8125 49.0625 C-17.9375 51.625 -17.9375 51.625 -19.9375 52.625 C-24.1828085 52.92874383 -28.43142797 52.98115414 -32.68603516 53.0300293 C-34.1003458 53.05162554 -35.51452219 53.08574952 -36.92822266 53.13256836 C-38.97098176 53.19957925 -41.01098459 53.22701852 -43.0546875 53.24609375 C-44.88942627 53.28367798 -44.88942627 53.28367798 -46.76123047 53.32202148 C-49.9375 52.625 -49.9375 52.625 -52.30224609 49.78295898 C-57.79005058 39.18505647 -58.03508214 27.94770994 -54.97265625 16.65234375 C-51.81964732 7.43127991 -46.19896034 0.05937958 -37.6015625 -4.65625 C-24.11989792 -10.92679167 -11.71192271 -9.24789636 0 0 Z M-10.9375 27.625 C-13.22763653 31.0602048 -13.11592973 32.610331 -12.9375 36.625 C-11.6175 36.955 -10.2975 37.285 -8.9375 37.625 C-8.2775 40.265 -7.6175 42.905 -6.9375 45.625 C-6.6075 45.625 -6.2775 45.625 -5.9375 45.625 C-6.44835812 39.18818772 -7.66692897 33.66557576 -9.9375 27.625 C-10.2675 27.625 -10.5975 27.625 -10.9375 27.625 Z M32.0625 36.625 C30.28490124 41.59420684 30.28490124 41.59420684 31.0625 46.625 C32.0525 45.635 33.0425 44.645 34.0625 43.625 C34.7225 46.595 35.3825 49.565 36.0625 52.625 C36.3925 52.625 36.7225 52.625 37.0625 52.625 C36.53856294 46.75690493 35.30141142 42.07626259 33.0625 36.625 C32.7325 36.625 32.4025 36.625 32.0625 36.625 Z M-5.9375 45.625 C-4.9375 47.625 -4.9375 47.625 -4.9375 47.625 Z M29.0625 47.625 C30.0625 49.625 30.0625 49.625 30.0625 49.625 Z M-4.9375 48.625 C-4.79581863 50.06291516 -4.64898957 51.5003237 -4.5 52.9375 C-4.41878906 53.73800781 -4.33757812 54.53851563 -4.25390625 55.36328125 C-3.98484307 57.78587179 -3.98484307 57.78587179 -2.9375 60.625 C-2.2775 60.625 -1.6175 60.625 -0.9375 60.625 C-0.9375 58.645 -0.9375 56.665 -0.9375 54.625 C1.3725 54.625 3.6825 54.625 6.0625 54.625 C6.40023437 55.69621094 6.73796875 56.76742187 7.0859375 57.87109375 C7.53606249 59.26835675 7.98660496 60.66548531 8.4375 62.0625 C8.65921875 62.76955078 8.8809375 63.47660156 9.109375 64.20507812 C9.70352606 66.0312189 10.37799619 67.83077032 11.0625 69.625 C11.7225 69.955 12.3825 70.285 13.0625 70.625 C13.69478516 69.01818359 13.69478516 69.01818359 14.33984375 67.37890625 C14.89309319 65.98171698 15.44648602 64.58458449 16 63.1875 C16.27779297 62.48044922 16.55558594 61.77339844 16.84179688 61.04492188 C18.94921875 55.73828125 18.94921875 55.73828125 20.0625 54.625 C22.71713121 54.17040142 25.38439138 53.92256762 28.0625 53.625 C28.3925 52.305 28.7225 50.985 29.0625 49.625 C28.7325 50.285 28.4025 50.945 28.0625 51.625 C26.46086084 51.72419077 24.85470082 51.75469898 23.25 51.75 C19.36263197 51.98112903 19.36263197 51.98112903 16.51171875 54.39453125 C15.1436224 57.15559842 14.0625 59.51740187 14.0625 62.625 C13.0725 62.625 12.0825 62.625 11.0625 62.625 C10.0725 59.325 9.0825 56.025 8.0625 52.625 C5.95875 52.4703125 5.95875 52.4703125 3.8125 52.3125 C0.08661181 51.91350725 -2.20478571 51.35771429 -4.9375 48.625 Z M37.0625 53.625 C38.0625 55.625 38.0625 55.625 38.0625 55.625 Z " fill="#173E85" transform="translate(182.9375,135.375)"/>
<path d="M0 0 C0.825 -0.01224609 1.65 -0.02449219 2.5 -0.03710938 C13.15685992 -0.06248285 19.61873311 3.43397207 27.203125 10.69921875 C35.4745747 19.79283061 35.24246506 32.29461723 34.79101562 43.81542969 C34.13968587 53.12178249 30.84760199 60.43032896 24.34375 67.0859375 C19.55061754 70.7909738 12.82669486 74.1875 6.625 74.1875 C6.625 75.1775 6.625 76.1675 6.625 77.1875 C10.255 77.1875 13.885 77.1875 17.625 77.1875 C17.625 80.1575 17.625 83.1275 17.625 86.1875 C14.32164934 87.28861689 11.72667863 87.38976528 8.25 87.4375 C6.56777344 87.47617188 6.56777344 87.47617188 4.8515625 87.515625 C1.22611379 87.1469353 -0.58114877 86.51822634 -3.375 84.1875 C-4.30078125 81.70703125 -4.30078125 81.70703125 -4.6875 79 C-4.82800781 78.09894531 -4.96851563 77.19789063 -5.11328125 76.26953125 C-5.19964844 75.58246094 -5.28601563 74.89539063 -5.375 74.1875 C-6.344375 74.105 -7.31375 74.0225 -8.3125 73.9375 C-16.14927468 72.75250383 -22.23689546 69.2955634 -27.6484375 63.5390625 C-34.90490755 53.65581596 -35.57277862 39.99308967 -34.375 28.1875 C-32.88828183 20.38792079 -30.56989084 13.46712703 -24.375 8.1875 C-23.385 7.8575 -22.395 7.5275 -21.375 7.1875 C-21.045 6.1975 -20.715 5.2075 -20.375 4.1875 C-13.67504607 0.22843632 -7.56985284 0.00585902 0 0 Z M-18.078125 20.11328125 C-22.86887034 27.77558781 -22.41312466 38.38049017 -20.875 46.984375 C-19.08052441 53.06112188 -16.01156115 56.47066948 -10.6875 59.9375 C-3.2569025 62.74149906 3.56266264 62.68497414 11.13671875 60.328125 C15.09105337 58.51546298 17.59109471 56.01436013 19.625 52.1875 C22.91939415 42.86482211 23.75441999 30.42147268 19.4375 21.3125 C16.21258498 16.02545622 12.4767718 13.14632094 6.625 11.1875 C-4.69826214 10.04855199 -10.54358116 11.74831726 -18.078125 20.11328125 Z " fill="#1B4184" transform="translate(553.375,137.8125)"/>
<path d="M0 0 C6.27 0 12.54 0 19 0 C22.24594342 7.77516681 25.23227896 15.38728158 27.5 23.5 C29.2606063 29.79432874 31.4006488 35.78819591 33.90795898 41.8215332 C35.63635854 46.00144397 37.00642086 50.1632363 38.203125 54.51953125 C39.51577389 58.60547263 41.38025654 62.45723938 43.20703125 66.3359375 C44 69 44 69 43.13671875 71.3515625 C42.76160156 71.89554687 42.38648438 72.43953125 42 73 C32.9559214 73.62134891 32.9559214 73.62134891 29.5 71.375 C25.68078596 65.3279111 25.73919681 60.39196806 25 53 C15.1 53 5.2 53 -5 53 C-5.66 56.3 -6.32 59.6 -7 63 C-9.5 70.5 -9.5 70.5 -12 73 C-14.6015625 73.1953125 -14.6015625 73.1953125 -17.625 73.125 C-18.62789063 73.10695313 -19.63078125 73.08890625 -20.6640625 73.0703125 C-21.43492187 73.04710937 -22.20578125 73.02390625 -23 73 C-24.40368172 68.45839129 -23.40385351 65.20935101 -21.83203125 60.8984375 C-21.5959465 60.22132721 -21.35986176 59.54421692 -21.11662292 58.84658813 C-20.35993314 56.6851985 -19.5865045 54.53024171 -18.8125 52.375 C-18.3107448 50.94960695 -17.81008322 49.52382843 -17.31054688 48.09765625 C-14.89477006 41.22196083 -12.41357541 34.37046999 -9.91381836 27.52490234 C-8.04869575 22.37152324 -6.26437668 17.18962499 -4.46875 12.01171875 C-4.17742187 11.17511719 -3.88609375 10.33851563 -3.5859375 9.4765625 C-3.3286084 8.73486816 -3.0712793 7.99317383 -2.80615234 7.22900391 C-1.92703216 4.79824459 -0.95998873 2.39997183 0 0 Z M9 11 C4.86127193 20.95950606 1.24633444 30.19843488 0 41 C6.27 41 12.54 41 19 41 C17.53558123 30.30974296 13.98482083 20.56222842 9 11 Z " fill="#1F4488" transform="translate(307,139)"/>
<path d="M0 0 C5.10451702 -0.09958538 10.20845677 -0.17180331 15.3137207 -0.21972656 C17.04689395 -0.2397241 18.78000075 -0.26693148 20.51293945 -0.30175781 C40.4653527 -0.69241837 40.4653527 -0.69241837 48.875 6.4375 C55.10135686 13.94575386 55.63888891 20.4535253 55 30 C53.97609441 36.07176014 50.9879939 39.48044424 46.42578125 43.45703125 C39.03594912 48.15748808 32.53878545 48.39589339 24 48.1875 C22.93910156 48.17396484 21.87820313 48.16042969 20.78515625 48.14648438 C18.18956313 48.11140879 15.59505933 48.06225844 13 48 C13.01047363 48.68626465 13.02094727 49.3725293 13.03173828 50.07958984 C13.07321874 53.17802289 13.09930069 56.27639761 13.125 59.375 C13.14175781 60.45523438 13.15851563 61.53546875 13.17578125 62.6484375 C13.18222656 63.6796875 13.18867188 64.7109375 13.1953125 65.7734375 C13.20578613 66.72653809 13.21625977 67.67963867 13.22705078 68.66162109 C13 71 13 71 11 73 C8.90625 73.265625 8.90625 73.265625 6.5 73.25 C5.7059375 73.25515625 4.911875 73.2603125 4.09375 73.265625 C2 73 2 73 0 71 C-0.24050903 68.0640564 -0.24050903 68.0640564 -0.22705078 64.25537109 C-0.22734283 63.56257553 -0.22763489 62.86977997 -0.22793579 62.1559906 C-0.22654031 59.86167966 -0.21096919 57.56769184 -0.1953125 55.2734375 C-0.19158314 53.68446022 -0.1887358 52.09548064 -0.18673706 50.50650024 C-0.17909453 46.32085846 -0.15944081 42.1353551 -0.1373291 37.94976807 C-0.11688396 33.68007276 -0.1077382 29.41035513 -0.09765625 25.140625 C-0.07619543 16.76035309 -0.04205211 8.38019375 0 0 Z M13 11 C13 19.58 13 28.16 13 37 C27.09958841 37.8148867 27.09958841 37.8148867 39.9375 33 C42.77507597 30.24841119 43.18818864 28.59710948 43.3125 24.75 C43.25272495 20.10249011 42.1258769 17.5482927 39 14 C34.22355729 9.99119987 29.08598844 10.65919266 23.1875 10.8125 C19.825625 10.874375 16.46375 10.93625 13 11 Z " fill="#1F4485" transform="translate(358,139)"/>
<path d="M0 0 C1.09783813 -0.00315216 2.19567627 -0.00630432 3.32678223 -0.009552 C5.11892151 -0.00651566 5.11892151 -0.00651566 6.94726562 -0.00341797 C8.16426147 -0.00437469 9.38125732 -0.00533142 10.63513184 -0.00631714 C13.21427461 -0.00699919 15.79341909 -0.00514319 18.37255859 -0.00097656 C22.33630198 0.00437131 26.29993204 -0.00092076 30.26367188 -0.00732422 C32.76237004 -0.00666344 35.26106814 -0.00538229 37.75976562 -0.00341797 C38.95452515 -0.0054422 40.14928467 -0.00746643 41.38024902 -0.009552 C42.47808716 -0.00639984 43.57592529 -0.00324768 44.70703125 0 C46.16477966 0.00119339 46.16477966 0.00119339 47.65197754 0.00241089 C49.85351562 0.12939453 49.85351562 0.12939453 50.85351562 1.12939453 C50.95142132 2.62677577 50.98326427 4.12882345 50.97851562 5.62939453 C50.98238281 6.85142578 50.98238281 6.85142578 50.98632812 8.09814453 C50.85351562 10.12939453 50.85351562 10.12939453 49.85351562 11.12939453 C48.29178818 11.21625056 46.72622218 11.23641673 45.16210938 11.22705078 C44.21787109 11.22382813 43.27363281 11.22060547 42.30078125 11.21728516 C41.30755859 11.20890625 40.31433594 11.20052734 39.29101562 11.19189453 C38.29392578 11.18738281 37.29683594 11.18287109 36.26953125 11.17822266 C33.79746714 11.1663946 31.32552045 11.14991302 28.85351562 11.12939453 C28.86017746 11.87663788 28.86683929 12.62388123 28.873703 13.39376831 C28.93375324 20.42743227 28.97945883 27.46100781 29.00895214 34.49485588 C29.02462463 38.11126493 29.04589116 41.72746262 29.07983398 45.34375 C29.11237193 48.83209441 29.1303567 52.32023521 29.13814735 55.80871964 C29.14640831 57.79083222 29.1698365 59.77286262 29.19340515 61.75485229 C29.19363174 62.95594635 29.19385834 64.15704041 29.1940918 65.39453125 C29.20075363 66.45598358 29.20741547 67.51743591 29.21427917 68.61105347 C29.0952272 69.44210602 28.97617523 70.27315857 28.85351562 71.12939453 C24.76921354 73.85226259 22.70760686 73.51463987 17.85351562 73.12939453 C15.55561049 69.68253683 15.60917102 68.42820501 15.62646484 64.37280273 C15.62661591 63.19180496 15.62676697 62.01080719 15.62692261 60.79402161 C15.63724518 59.51895248 15.64756775 58.24388336 15.65820312 56.93017578 C15.66103302 55.62485397 15.66386292 54.31953217 15.66677856 52.97465515 C15.67440815 49.50743938 15.69405069 46.04039165 15.71618652 42.57324219 C15.73665957 39.03404005 15.74578339 35.49481071 15.75585938 31.95556641 C15.77729733 25.01344017 15.81142507 18.07142542 15.85351562 11.12939453 C15.2226001 11.13463135 14.59168457 11.13986816 13.94165039 11.14526367 C11.09978215 11.16597279 8.25792975 11.17903519 5.41601562 11.19189453 C3.92618164 11.20446289 3.92618164 11.20446289 2.40625 11.21728516 C1.46201172 11.22050781 0.51777344 11.22373047 -0.45507812 11.22705078 C-1.32962646 11.2322876 -2.2041748 11.23752441 -3.10522461 11.24291992 C-5.14648438 11.12939453 -5.14648438 11.12939453 -6.14648438 10.12939453 C-6.24439007 8.63201329 -6.27623302 7.12996561 -6.27148438 5.62939453 C-6.2740625 4.81470703 -6.27664063 4.00001953 -6.27929688 3.16064453 C-6.0140972 -0.89535046 -3.4868764 0.00285454 0 0 Z " fill="#163D80" transform="translate(420.146484375,138.87060546875)"/>
<path d="M0 0 C1.25159912 0.00523682 2.50319824 0.01047363 3.79272461 0.01586914 C4.78942421 0.01799156 4.78942421 0.01799156 5.80625916 0.02015686 C7.93590735 0.02577021 10.06545175 0.03832485 12.19506836 0.05102539 C13.63582205 0.05603868 15.07657739 0.06060188 16.51733398 0.06469727 C20.05577938 0.07574394 23.59416375 0.09301747 27.13256836 0.11352539 C27.15944987 1.75927105 27.17890959 3.40513952 27.19506836 5.05102539 C27.20666992 5.96754883 27.21827148 6.88407227 27.23022461 7.82836914 C27.13256836 10.11352539 27.13256836 10.11352539 26.13256836 11.11352539 C23.49256836 11.11352539 20.85256836 11.11352539 18.13256836 11.11352539 C18.13256836 27.28352539 18.13256836 43.45352539 18.13256836 60.11352539 C20.44256836 60.11352539 22.75256836 60.11352539 25.13256836 60.11352539 C25.79256836 60.44352539 26.45256836 60.77352539 27.13256836 61.11352539 C27.13256836 64.74352539 27.13256836 68.37352539 27.13256836 72.11352539 C17.23256836 72.11352539 7.33256836 72.11352539 -2.86743164 72.11352539 C-3.97390972 69.90056923 -4.06331532 68.5667984 -4.11743164 66.11352539 C-4.14321289 65.41227539 -4.16899414 64.71102539 -4.19555664 63.98852539 C-4.08727539 63.36977539 -3.97899414 62.75102539 -3.86743164 62.11352539 C-0.86743164 60.11352539 -0.86743164 60.11352539 5.13256836 60.11352539 C5.13256836 44.27352539 5.13256836 28.43352539 5.13256836 12.11352539 C2.82256836 11.78352539 0.51256836 11.45352539 -1.86743164 11.11352539 C-3.86743164 9.11352539 -3.86743164 9.11352539 -4.09790039 7.20336914 C-3.95722222 0.15667163 -3.95722222 0.15667163 0 0 Z " fill="#1D4283" transform="translate(480.867431640625,138.886474609375)"/>
<path d="M0 0 C0.639375 0.33 1.27875 0.66 1.9375 1 C2.5975 0.67 3.2575 0.34 3.9375 0 C3.99166188 1.60379341 4.03036638 3.20811406 4.0625 4.8125 C4.08570313 5.70582031 4.10890625 6.59914062 4.1328125 7.51953125 C3.9375 10 3.9375 10 1.9375 13 C9.1975 13 16.4575 13 23.9375 13 C24.2675 11.68 24.5975 10.36 24.9375 9 C27.5 7.75 27.5 7.75 29.9375 7 C29.9375 6.01 29.9375 5.02 29.9375 4 C30.5975 4 31.2575 4 31.9375 4 C32.5975 6.31 33.2575 8.62 33.9375 11 C34.2675 11 34.5975 11 34.9375 11 C34.9375 13.64 34.9375 16.28 34.9375 19 C35.9275 19.33 36.9175 19.66 37.9375 20 C38.4325 24.455 38.4325 24.455 38.9375 29 C37.9475 29.33 36.9575 29.66 35.9375 30 C30.31162096 26.96202532 30.31162096 26.96202532 29.0625 23.75 C29.02125 23.1725 28.98 22.595 28.9375 22 C28.23931152 22.16153564 27.54112305 22.32307129 26.82177734 22.48950195 C21.45256416 23.43981724 16.0010939 23.18461327 10.5625 23.1875 C9.3559375 23.19974609 8.149375 23.21199219 6.90625 23.22460938 C0.87064119 23.23455818 -4.38199864 23.11971511 -10.0625 21 C-11.27106918 16.04486635 -10.83020951 12.77281569 -9.0625 8 C-8.09376968 6.64377755 -7.09815785 5.30582947 -6.0625 4 C-5.815 2.9171875 -5.815 2.9171875 -5.5625 1.8125 C-5.3975 1.214375 -5.2325 0.61625 -5.0625 0 C-2.0625 -1 -2.0625 -1 0 0 Z " fill="#163E80" transform="translate(304.0625,168)"/>
<path d="M0 0 C2.75501772 2.75501772 3.53440366 6.00928817 4.75 9.625 C5.27848435 11.16326402 5.80847188 12.7010123 6.33984375 14.23828125 C6.6116748 15.02541504 6.88350586 15.81254883 7.16357422 16.62353516 C8.72248506 21.05273484 10.40114265 25.43707998 12.08300781 29.82080078 C14.7230997 36.75867489 14.7230997 36.75867489 15 39 C12.50959058 41.49040942 11.56845643 41.32391014 8.125 41.375 C4.76210972 41.29746939 3.36160252 41.23504164 0.5 39.375 C-3.31921404 33.3279111 -3.26080319 28.39196806 -4 21 C-13.9 21 -23.8 21 -34 21 C-34.66 24.3 -35.32 27.6 -36 31 C-38.5 38.5 -38.5 38.5 -41 41 C-43.6015625 41.1953125 -43.6015625 41.1953125 -46.625 41.125 C-47.62789063 41.10695312 -48.63078125 41.08890625 -49.6640625 41.0703125 C-50.82035156 41.03550781 -50.82035156 41.03550781 -52 41 C-53.38889221 36.4343462 -52.49205845 33.60120084 -50.91015625 29.16796875 C-50.68678085 28.53135818 -50.46340546 27.89474762 -50.23326111 27.23884583 C-49.52105742 25.2174814 -48.79210708 23.20263963 -48.0625 21.1875 C-47.57505213 19.81354779 -47.08871155 18.4392022 -46.60351562 17.06445312 C-45.41513243 13.70498475 -44.21166102 10.35115344 -43 7 C-42.67 7 -42.34 7 -42 7 C-42 10.63 -42 14.26 -42 18 C-40.5459375 17.9690625 -40.5459375 17.9690625 -39.0625 17.9375 C-36 18 -36 18 -35 19 C-33.05935877 19.09993586 -31.11508666 19.13080919 -29.171875 19.1328125 C-27.97949219 19.13410156 -26.78710938 19.13539063 -25.55859375 19.13671875 C-24.30175781 19.13285156 -23.04492188 19.12898438 -21.75 19.125 C-20.50863281 19.12886719 -19.26726562 19.13273437 -17.98828125 19.13671875 C-16.79074219 19.13542969 -15.59320313 19.13414062 -14.359375 19.1328125 C-12.71146973 19.13112061 -12.71146973 19.13112061 -11.03027344 19.12939453 C-8.23818156 19.0101705 -5.71592842 18.63514629 -3 18 C-2.4121875 19.423125 -2.4121875 19.423125 -1.8125 20.875 C-0.28737043 24.13458337 -0.28737043 24.13458337 2.5625 25.375 C4.90349583 26.08279178 4.90349583 26.08279178 7 26 C6.67 25.071875 6.34 24.14375 6 23.1875 C5 20 5 20 5 17 C4.34 16.67 3.68 16.34 3 16 C2.59270772 13.67843403 2.25561323 11.3431213 2 9 C1.67 9 1.34 9 1 9 C0.505 4.545 0.505 4.545 0 0 Z " fill="#335389" transform="translate(336,171)"/>
<path d="M0 0 C0.3403125 0.8353125 0.3403125 0.8353125 0.6875 1.6875 C3.57228043 6.77020838 7.57964216 9.95458195 13 12 C18.20800923 12.93777658 22.83344696 13.25672912 28 12 C30.33301986 11.96175377 32.66711508 11.95425716 35 12 C34.2890625 13.953125 34.2890625 13.953125 33 16 C30.8359375 16.609375 30.8359375 16.609375 28.375 16.75 C27.55773437 16.80671875 26.74046875 16.8634375 25.8984375 16.921875 C25.27195312 16.94765625 24.64546875 16.9734375 24 17 C23.86851562 17.62390625 23.73703125 18.2478125 23.6015625 18.890625 C23 21 23 21 21.375 22.75 C19.22104656 26.27465109 20.26889646 29.0121625 21 33 C18.49962266 30.82575883 17.56371414 29.26954202 17 26 C16.34 26.99 15.68 27.98 15 29 C15 28.01 15 27.02 15 26 C14.030625 25.9175 13.06125 25.835 12.0625 25.75 C3.23669209 24.41545243 -3.57530933 20.08531026 -9 13 C-9.71875 10.75 -9.71875 10.75 -10 9 C-9.34 9 -8.68 9 -8 9 C-7.67 9.99 -7.34 10.98 -7 12 C-3.48283697 12 -2.62878252 11.17554415 0 9 C-0.33 8.01 -0.66 7.02 -1 6 C-0.72428861 3.99124558 -0.39764263 1.98821313 0 0 Z " fill="#173978" transform="translate(533,186)"/>
<path d="M0 0 C2 1 2 1 3 3 C3.66 3.33 4.32 3.66 5 4 C5 3.34 5 2.68 5 2 C5.66 2 6.32 2 7 2 C7.02467917 7.23274388 7.04285003 12.46545403 7.05493164 17.69824219 C7.05996711 19.47917267 7.06679581 21.260099 7.07543945 23.04101562 C7.08753942 25.59766665 7.09323609 28.15426312 7.09765625 30.7109375 C7.10281754 31.50994476 7.10797882 32.30895203 7.11329651 33.13217163 C7.11387171 38.77225659 7.11387171 38.77225659 6 41 C6.66 41.33 7.32 41.66 8 42 C5.75 44.0625 5.75 44.0625 3 46 C0.6875 45.75 0.6875 45.75 -1 45 C-1 44.01 -1 43.02 -1 42 C-1.66 42 -2.32 42 -3 42 C-4.58877287 38.82245425 -4 35.50617078 -4 32 C-4.33 31.34 -4.66 30.68 -5 30 C-5.56575574 22.41330832 -6.08078861 15.36339084 -1.95703125 8.71875 C-0.39258045 5.90912407 -0.26441345 3.17296139 0 0 Z " fill="#153F83" transform="translate(526,153)"/>
<path d="M0 0 C1.09783813 -0.00315216 2.19567627 -0.00630432 3.32678223 -0.009552 C5.11892151 -0.00651566 5.11892151 -0.00651566 6.94726562 -0.00341797 C8.16426147 -0.00437469 9.38125732 -0.00533142 10.63513184 -0.00631714 C13.21427461 -0.00699919 15.79341909 -0.00514319 18.37255859 -0.00097656 C22.33630198 0.00437131 26.29993204 -0.00092076 30.26367188 -0.00732422 C32.76237004 -0.00666344 35.26106814 -0.00538229 37.75976562 -0.00341797 C38.95452515 -0.0054422 40.14928467 -0.00746643 41.38024902 -0.009552 C42.47808716 -0.00639984 43.57592529 -0.00324768 44.70703125 0 C46.16477966 0.00119339 46.16477966 0.00119339 47.65197754 0.00241089 C49.85351562 0.12939453 49.85351562 0.12939453 50.85351562 1.12939453 C50.95142132 2.62677577 50.98326427 4.12882345 50.97851562 5.62939453 C50.98238281 6.85142578 50.98238281 6.85142578 50.98632812 8.09814453 C50.85351562 10.12939453 50.85351562 10.12939453 49.85351562 11.12939453 C48.29178818 11.21625056 46.72622218 11.23641673 45.16210938 11.22705078 C44.21787109 11.22382813 43.27363281 11.22060547 42.30078125 11.21728516 C41.30755859 11.20890625 40.31433594 11.20052734 39.29101562 11.19189453 C38.29392578 11.18738281 37.29683594 11.18287109 36.26953125 11.17822266 C33.79746714 11.1663946 31.32552045 11.14991302 28.85351562 11.12939453 C28.85351562 10.79939453 28.85351562 10.46939453 28.85351562 10.12939453 C33.80351562 9.79939453 38.75351562 9.46939453 43.85351562 9.12939453 C44.18351562 8.13939453 44.51351562 7.14939453 44.85351562 6.12939453 C45.84351563 6.12939453 46.83351563 6.12939453 47.85351562 6.12939453 C47.85351562 4.80939453 47.85351562 3.48939453 47.85351562 2.12939453 C30.69351563 1.79939453 13.53351563 1.46939453 -4.14648438 1.12939453 C-4.14648438 4.09939453 -4.14648438 7.06939453 -4.14648438 10.12939453 C2.78351563 10.12939453 9.71351563 10.12939453 16.85351562 10.12939453 C18.16440452 12.75117232 18.01435269 14.74464087 18.05883789 17.68066406 C18.07878311 18.84171661 18.09872833 20.00276917 18.11927795 21.19900513 C18.13599045 22.45736176 18.15270294 23.71571838 18.16992188 25.01220703 C18.19070297 26.29674774 18.21148407 27.58128845 18.2328949 28.90475464 C18.28810612 32.32088812 18.3375195 35.73708198 18.38574219 39.15332031 C18.43596419 42.63888934 18.4916466 46.12437062 18.546875 49.60986328 C18.6544449 56.44963095 18.75589246 63.28947787 18.85351562 70.12939453 C21.49351562 70.45939453 24.13351562 70.78939453 26.85351562 71.12939453 C26.84771484 70.00364014 26.84191406 68.87788574 26.8359375 67.71801758 C26.79299668 55.45122816 27.01868736 43.20357525 27.35351562 30.94189453 C27.40191962 29.10140569 27.45009763 27.2609109 27.49804688 25.42041016 C27.61394717 20.98999901 27.73285016 16.55967834 27.85351562 12.12939453 C28.18351562 12.12939453 28.51351562 12.12939453 28.85351562 12.12939453 C28.9229528 19.78742773 28.97629476 27.4454284 29.00895214 35.10370445 C29.02462426 38.65958125 29.04589006 42.21524305 29.07983398 45.77099609 C29.11859322 49.85662935 29.13321195 53.94203594 29.14648438 58.02783203 C29.16196823 59.30806244 29.17745209 60.58829285 29.19340515 61.90731812 C29.19363174 63.08839142 29.19385834 64.26946472 29.1940918 65.48632812 C29.20075363 66.53001556 29.20741547 67.573703 29.21427917 68.64901733 C29.0952272 69.46754181 28.97617523 70.28606628 28.85351562 71.12939453 C24.76921354 73.85226259 22.70760686 73.51463987 17.85351562 73.12939453 C15.55561049 69.68253683 15.60917102 68.42820501 15.62646484 64.37280273 C15.62661591 63.19180496 15.62676697 62.01080719 15.62692261 60.79402161 C15.63724518 59.51895248 15.64756775 58.24388336 15.65820312 56.93017578 C15.66103302 55.62485397 15.66386292 54.31953217 15.66677856 52.97465515 C15.67440815 49.50743938 15.69405069 46.04039165 15.71618652 42.57324219 C15.73665957 39.03404005 15.74578339 35.49481071 15.75585938 31.95556641 C15.77729733 25.01344017 15.81142507 18.07142542 15.85351562 11.12939453 C15.2226001 11.13463135 14.59168457 11.13986816 13.94165039 11.14526367 C11.09978215 11.16597279 8.25792975 11.17903519 5.41601562 11.19189453 C3.92618164 11.20446289 3.92618164 11.20446289 2.40625 11.21728516 C1.46201172 11.22050781 0.51777344 11.22373047 -0.45507812 11.22705078 C-1.32962646 11.2322876 -2.2041748 11.23752441 -3.10522461 11.24291992 C-5.14648438 11.12939453 -5.14648438 11.12939453 -6.14648438 10.12939453 C-6.24439007 8.63201329 -6.27623302 7.12996561 -6.27148438 5.62939453 C-6.2740625 4.81470703 -6.27664063 4.00001953 -6.27929688 3.16064453 C-6.0140972 -0.89535046 -3.4868764 0.00285454 0 0 Z " fill="#7987B3" transform="translate(420.146484375,138.87060546875)"/>
<path d="M0 0 C1.875 0.125 1.875 0.125 4 1 C5.89385576 5.18641799 6.45544122 9.46201017 7 14 C7.66 14 8.32 14 9 14 C9 14.99 9 15.98 9 17 C9.66 17 10.32 17 11 17 C11.39180108 18.57925975 11.76280736 20.16368794 12.125 21.75 C12.43824219 23.07257813 12.43824219 23.07257813 12.7578125 24.421875 C13.03088304 27.32875493 12.53508028 28.56661348 11 31 C9.68 31 8.36 31 7 31 C6.01 33.475 6.01 33.475 5 36 C-2.26 36 -9.52 36 -17 36 C-16.67 35.34 -16.34 34.68 -16 34 C-9.73 34.33 -3.46 34.66 3 35 C2.21625 32.48375 1.4325 29.9675 0.625 27.375 C0.38217285 26.59431152 0.1393457 25.81362305 -0.11083984 25.00927734 C-0.30887207 24.3745752 -0.5069043 23.73987305 -0.7109375 23.0859375 C-0.92733887 22.38839355 -1.14374023 21.69084961 -1.36669922 20.97216797 C-1.92026378 19.24830733 -2.53345075 17.54382362 -3.15625 15.84375 C-4.06308222 12.78738954 -4.20250537 10.30272025 -4.125 7.125 C-4.10695313 6.15820312 -4.08890625 5.19140625 -4.0703125 4.1953125 C-4.04710937 3.47085938 -4.02390625 2.74640625 -4 2 C-3.01 2.33 -2.02 2.66 -1 3 C-0.67 2.01 -0.34 1.02 0 0 Z " fill="#1C4181" transform="translate(323,145)"/>
<path d="M0 0 C5.919375 -0.0825 11.83875 -0.165 17.9375 -0.25 C19.78722412 -0.28641602 21.63694824 -0.32283203 23.54272461 -0.36035156 C31.93626825 -0.45477328 38.58522411 -0.4471147 46 4 C46 4.99 46 5.98 46 7 C42.67465243 8.10844919 40.37817425 7.84454356 37 7 C37 7.66 37 8.32 37 9 C37.99 9.33 38.98 9.66 40 10 C34.31401066 11.29227031 28.89196518 10.90242274 23.125 10.5625 C22.15046875 10.51029297 21.1759375 10.45808594 20.171875 10.40429688 C17.78086598 10.27536992 15.39035574 10.14044056 13 10 C13.99 9.01 14.98 8.02 16 7 C15.67 6.01 15.34 5.02 15 4 C15.33 3.34 15.66 2.68 16 2 C23.06608191 1.86205046 29.97360585 2.25194283 37 3 C34.99283657 0.99283657 31.00227147 1.74409269 28.24609375 1.68359375 C27.55906372 1.66494263 26.87203369 1.6462915 26.16418457 1.6270752 C23.58875842 1.55858812 21.01311293 1.49856053 18.4375 1.4375 C9.8059375 1.2209375 9.8059375 1.2209375 1 1 C1 16.18 1 31.36 1 47 C0.67 47 0.34 47 0 47 C0 31.49 0 15.98 0 0 Z " fill="#39568E" transform="translate(358,139)"/>
<path d="M0 0 C0.88365234 0.00451172 1.76730469 0.00902344 2.67773438 0.01367188 C4.84768559 0.02540134 7.01760172 0.04333505 9.1875 0.0625 C8.5275 0.7225 7.8675 1.3825 7.1875 2.0625 C9.1129644 4.2861068 9.1129644 4.2861068 12.1875 5.0625 C11.5275 6.3825 10.8675 7.7025 10.1875 9.0625 C11.1775 9.3925 12.1675 9.7225 13.1875 10.0625 C13.1875 10.7225 13.1875 11.3825 13.1875 12.0625 C4.9375 11.7325 -3.3125 11.4025 -11.8125 11.0625 C-12.1425 10.4025 -12.4725 9.7425 -12.8125 9.0625 C-14.83713255 8.41036708 -14.83713255 8.41036708 -16.8125 8.0625 C-16.1525 5.7525 -15.4925 3.4425 -14.8125 1.0625 C-9.89747242 -0.22985715 -5.03959898 -0.04885517 0 0 Z " fill="#1E4180" transform="translate(553.8125,137.9375)"/>
<path d="M0 0 C0.66 0 1.32 0 2 0 C2.66 0.66 3.32 1.32 4 2 C6.57061311 2.64767793 6.57061311 2.64767793 9 3 C9.33 2.01 9.66 1.02 10 0 C10.35260386 7.10431476 10.06108161 12.52463506 7 19 C5 21 5 21 2.3984375 21.1953125 C1.40070313 21.17210937 0.40296875 21.14890625 -0.625 21.125 C-2.12933594 21.09792969 -2.12933594 21.09792969 -3.6640625 21.0703125 C-4.43492187 21.04710937 -5.20578125 21.02390625 -6 21 C-7.13637609 16.97622806 -6.9020261 14.92229542 -5.0625 11.1875 C-4.68222656 10.39730469 -4.30195313 9.60710937 -3.91015625 8.79296875 C-3.60980469 8.20128906 -3.30945313 7.60960937 -3 7 C-2.34 7 -1.68 7 -1 7 C-0.67 4.69 -0.34 2.38 0 0 Z " fill="#173B7D" transform="translate(290,191)"/>
<path d="M0 0 C1.25159912 0.00523682 2.50319824 0.01047363 3.79272461 0.01586914 C4.78942421 0.01799156 4.78942421 0.01799156 5.80625916 0.02015686 C7.93590735 0.02577021 10.06545175 0.03832485 12.19506836 0.05102539 C13.63582205 0.05603868 15.07657739 0.06060188 16.51733398 0.06469727 C20.05577938 0.07574394 23.59416375 0.09301747 27.13256836 0.11352539 C27.13256836 3.41352539 27.13256836 6.71352539 27.13256836 10.11352539 C26.80256836 10.11352539 26.47256836 10.11352539 26.13256836 10.11352539 C26.13256836 7.14352539 26.13256836 4.17352539 26.13256836 1.11352539 C16.89256836 1.11352539 7.65256836 1.11352539 -1.86743164 1.11352539 C-1.53743164 3.75352539 -1.20743164 6.39352539 -0.86743164 9.11352539 C2.10256836 9.44352539 5.07256836 9.77352539 8.13256836 10.11352539 C9.12767563 14.09395447 9.2328895 17.27884199 9.19506836 21.36352539 C9.18604492 22.62680664 9.17702148 23.89008789 9.16772461 25.19165039 C9.15612305 26.15586914 9.14452148 27.12008789 9.13256836 28.11352539 C8.80256836 28.11352539 8.47256836 28.11352539 8.13256836 28.11352539 C7.80256836 33.72352539 7.47256836 39.33352539 7.13256836 45.11352539 C7.79256836 45.11352539 8.45256836 45.11352539 9.13256836 45.11352539 C10.28076113 50.98206619 9.90569881 56.20205099 9.13256836 62.11352539 C5.21520255 63.28353509 2.15297821 62.80936556 -1.86743164 62.11352539 C-2.19743164 63.43352539 -2.52743164 64.75352539 -2.86743164 66.11352539 C-2.20743164 66.44352539 -1.54743164 66.77352539 -0.86743164 67.11352539 C-1.19743164 68.43352539 -1.52743164 69.75352539 -1.86743164 71.11352539 C-0.87743164 71.44352539 0.11256836 71.77352539 1.13256836 72.11352539 C-0.18743164 72.11352539 -1.50743164 72.11352539 -2.86743164 72.11352539 C-3.97390972 69.90056923 -4.06331532 68.5667984 -4.11743164 66.11352539 C-4.14321289 65.41227539 -4.16899414 64.71102539 -4.19555664 63.98852539 C-4.08727539 63.36977539 -3.97899414 62.75102539 -3.86743164 62.11352539 C-0.86743164 60.11352539 -0.86743164 60.11352539 5.13256836 60.11352539 C5.13256836 44.27352539 5.13256836 28.43352539 5.13256836 12.11352539 C2.82256836 11.78352539 0.51256836 11.45352539 -1.86743164 11.11352539 C-3.86743164 9.11352539 -3.86743164 9.11352539 -4.09790039 7.20336914 C-3.95722222 0.15667163 -3.95722222 0.15667163 0 0 Z " fill="#516792" transform="translate(480.867431640625,138.886474609375)"/>
<path d="M0 0 C6.27 0 12.54 0 19 0 C19.969375 2.31 20.93875 4.62 21.9375 7 C22.24163818 7.71027344 22.54577637 8.42054688 22.85913086 9.15234375 C24.75854614 13.79267937 25.55954827 18.00449689 26 23 C25.67 22.01 25.34 21.02 25 20 C24.34 20 23.68 20 23 20 C22.5359375 18.2984375 22.5359375 18.2984375 22.0625 16.5625 C21.37075469 13.21224901 21.37075469 13.21224901 20 12 C19.95936168 10.33382885 19.957279 8.66611905 20 7 C19.01 7.33 18.02 7.66 17 8 C16.67 7.67 16.34 7.34 16 7 C15.67 7.66 15.34 8.32 15 9 C14.34 9 13.68 9 13 9 C12.67 11.64 12.34 14.28 12 17 C10 15.375 10 15.375 8 13 C7.68547728 9.85477278 7.57958179 7.84083641 9 5 C8.34 5 7.68 5 7 5 C7 5.66 7 6.32 7 7 C5.68 6.67 4.36 6.34 3 6 C2.01 7.98 1.02 9.96 0 12 C-2 9 -2 9 -1.6875 5.4375 C-1 2 -1 2 0 0 Z " fill="#264782" transform="translate(307,139)"/>
<path d="M0 0 C9.24 0 18.48 0 28 0 C28 3.3 28 6.6 28 10 C25.36 10 22.72 10 20 10 C20.00785522 11.25937378 20.00785522 11.25937378 20.01586914 12.54418945 C20.10151216 28.39248484 20.12845443 44.18148697 19 60 C18.67 60 18.34 60 18 60 C17.97466096 52.66765073 17.95713773 45.33531273 17.94506836 38.00292969 C17.94003722 35.50813373 17.93321166 33.01334072 17.92456055 30.51855469 C17.91244173 26.93423738 17.9067595 23.34995904 17.90234375 19.765625 C17.89718246 18.64883362 17.89202118 17.53204224 17.88670349 16.38140869 C17.88662796 15.34063171 17.88655243 14.29985474 17.88647461 13.22753906 C17.884254 12.31264709 17.88203339 11.39775513 17.87974548 10.45513916 C17.99223242 8.15858431 18.35219415 6.1991267 19 4 C16.69 3.67 14.38 3.34 12 3 C12 2.34 12 1.68 12 1 C6.06 1.495 6.06 1.495 0 2 C0 1.34 0 0.68 0 0 Z " fill="#15336C" transform="translate(479,140)"/>
<path d="M0 0 C0.66 0.33 1.32 0.66 2 1 C1.67 2.32 1.34 3.64 1 5 C4.96 5 8.92 5 13 5 C13 7.97 13 10.94 13 14 C9.69664934 15.10111689 7.10167863 15.20226528 3.625 15.25 C2.50351562 15.27578125 1.38203125 15.3015625 0.2265625 15.328125 C-3.32639283 14.96680751 -5.16250117 14.12554458 -8 12 C-9.20272819 9.59454362 -9.10071472 8.05003047 -9.0625 5.375 C-9.05347656 4.55773437 -9.04445313 3.74046875 -9.03515625 2.8984375 C-9.02355469 2.27195313 -9.01195312 1.64546875 -9 1 C-7 2 -7 2 -5.875 5.0625 C-5.58625 6.031875 -5.2975 7.00125 -5 8 C-4.01 8 -3.02 8 -2 8 C-1.855625 6.865625 -1.71125 5.73125 -1.5625 4.5625 C-1 1 -1 1 0 0 Z " fill="#1D3A74" transform="translate(558,210)"/>
<path d="M0 0 C4.91128067 -0.04949353 9.82241566 -0.08576382 14.73388672 -0.10986328 C16.40415985 -0.1199115 18.07441542 -0.13355236 19.74462891 -0.15087891 C22.14750504 -0.17517926 24.55014827 -0.18649487 26.953125 -0.1953125 C27.69806213 -0.20563507 28.44299927 -0.21595764 29.21051025 -0.22659302 C32.96927642 -0.22740368 35.81173711 -0.10367118 39 2 C38.67 2.66 38.34 3.32 38 4 C37.34 3.67 36.68 3.34 36 3 C28.30690466 1.88765153 20.56794872 1.87282981 12.8125 1.9375 C11.76513672 1.94201172 10.71777344 1.94652344 9.63867188 1.95117188 C7.09238464 1.96279876 4.5462254 1.97913719 2 2 C2.00222061 2.71552536 2.00444122 3.43105072 2.00672913 4.16825867 C2.0267914 10.92140819 2.0420044 17.67454935 2.05181217 24.42772198 C2.05702399 27.89933738 2.06409068 31.3709281 2.07543945 34.8425293 C2.08841348 38.83642815 2.09324228 42.83030119 2.09765625 46.82421875 C2.10281754 48.06709152 2.10797882 49.30996429 2.11329651 50.59049988 C2.11337204 51.75132584 2.11344757 52.91215179 2.11352539 54.1081543 C2.115746 55.12741501 2.11796661 56.14667572 2.12025452 57.19682312 C2.00417994 59.90256415 1.60915034 62.36549032 1 65 C0.34 65 -0.32 65 -1 65 C-1.07658467 50.59676341 -0.83783806 36.21143028 -0.5 21.8125 C-0.4516269 19.68294715 -0.40344876 17.55338987 -0.35546875 15.42382812 C-0.2392176 10.28249836 -0.12036015 5.14123515 0 0 Z " fill="#17336F" transform="translate(359,140)"/>
<path d="M0 0 C0.66 0 1.32 0 2 0 C2.33 8.58 2.66 17.16 3 26 C8.28 26.33 13.56 26.66 19 27 C19 27.99 19 28.98 19 30 C20.32 30.33 21.64 30.66 23 31 C23 31.66 23 32.32 23 33 C21.02 33.495 21.02 33.495 19 34 C20.98 34 22.96 34 25 34 C25 34.33 25 34.66 25 35 C19.06 35 13.12 35 7 35 C7 34.01 7 33.02 7 32 C5.68 31.67 4.36 31.34 3 31 C3 30.34 3 29.68 3 29 C2.51104248 28.58709717 2.02208496 28.17419434 1.51831055 27.7487793 C-0.68403298 25.21213568 -0.34148512 23.33481679 -0.29296875 20.01953125 C-0.28330078 18.85615234 -0.27363281 17.69277344 -0.26367188 16.49414062 C-0.2259668 14.67172852 -0.2259668 14.67172852 -0.1875 12.8125 C-0.17396484 11.58595703 -0.16042969 10.35941406 -0.14648438 9.09570312 C-0.11108741 6.06336336 -0.0617076 3.03190004 0 0 Z " fill="#193B79" transform="translate(368,150)"/>
<path d="M0 0 C-0.33 2.64 -0.66 5.28 -1 8 C0.32 8.66 1.64 9.32 3 10 C-4.38097036 13.59424689 -10.47028513 14.53307421 -18.625 14.25 C-19.62917969 14.23195312 -20.63335937 14.21390625 -21.66796875 14.1953125 C-24.11302652 14.14873997 -26.55596812 14.08337028 -29 14 C-29 13.67 -29 13.34 -29 13 C-20.585 12.505 -20.585 12.505 -12 12 C-12.66 11.67 -13.32 11.34 -14 11 C-13.67 10.01 -13.34 9.02 -13 8 C-13 8.66 -13 9.32 -13 10 C-12.34 9.34 -11.68 8.68 -11 8 C-11.99 7.67 -12.98 7.34 -14 7 C-14 6.01 -14 5.02 -14 4 C-19.28 4 -24.56 4 -30 4 C-30 3.67 -30 3.34 -30 3 C-28.9378125 2.95101562 -27.875625 2.90203125 -26.78125 2.8515625 C-17.90244594 2.3970198 -8.69462393 -0.4347312 0 0 Z " fill="#436298" transform="translate(401,173)"/>
<path d="M0 0 C0.33 0 0.66 0 1 0 C1.0825 0.78375 1.165 1.5675 1.25 2.375 C1.70849401 5.1446618 1.70849401 5.1446618 4 6.125 C4.66 6.41375 5.32 6.7025 6 7 C6.495 8.485 6.495 8.485 7 10 C7.66 9.67 8.32 9.34 9 9 C9.36220266 10.79005941 9.71452469 12.58212057 10.0625 14.375 C10.35833984 15.87160156 10.35833984 15.87160156 10.66015625 17.3984375 C11 20 11 20 10 22 C9.855625 22.680625 9.71125 23.36125 9.5625 24.0625 C9.2840625 25.0215625 9.2840625 25.0215625 9 26 C8.01 26.495 8.01 26.495 7 27 C6.34 23.37 5.68 19.74 5 16 C4.01 16 3.02 16 2 16 C1.690625 17.134375 1.38125 18.26875 1.0625 19.4375 C0 23 0 23 -1 24 C-3.3756852 24.0883967 -5.72208674 24.11530305 -8.09765625 24.09765625 C-9.16094398 24.09553383 -9.16094398 24.09553383 -10.24571228 24.09336853 C-12.51801712 24.08775443 -14.79022475 24.07519963 -17.0625 24.0625 C-18.59960796 24.05748681 -20.13671745 24.05292359 -21.67382812 24.04882812 C-25.44925642 24.03778042 -29.22461171 24.02050641 -33 24 C-33.33 24.66 -33.66 25.32 -34 26 C-34 25.01 -34 24.02 -34 23 C-18.655 22.505 -18.655 22.505 -3 22 C-1.7290827 16.28087215 -0.7338362 11.61907313 -0.375 5.9375 C-0.30023438 4.81214844 -0.22546875 3.68679687 -0.1484375 2.52734375 C-0.09945312 1.69332031 -0.05046875 0.85929688 0 0 Z M8 15 C9 17 9 17 9 17 Z " fill="#495D8D" transform="translate(169,166)"/>
<path d="M0 0 C0.33 0 0.66 0 1 0 C0.98952637 0.7113208 0.97905273 1.4226416 0.96826172 2.15551758 C0.92671999 5.37447586 0.90067961 8.59337776 0.875 11.8125 C0.85824219 12.93205078 0.84148437 14.05160156 0.82421875 15.20507812 C0.81777344 16.27822266 0.81132812 17.35136719 0.8046875 18.45703125 C0.79421387 19.44678955 0.78374023 20.43654785 0.77294922 21.45629883 C0.81732596 24.2443952 0.81732596 24.2443952 3 27 C3.04092937 29.33297433 3.04241723 31.66705225 3 34 C3.33 34.66 3.66 35.32 4 36 C7.47914843 36.0294191 10.95826417 36.04693792 14.4375 36.0625 C15.89833008 36.07506836 15.89833008 36.07506836 17.38867188 36.08789062 C23.34778969 36.10782078 29.09067683 35.77609518 35 35 C34.67 36.32 34.34 37.64 34 39 C29.80092955 39.14860594 25.60326021 39.25732637 21.40234375 39.32958984 C19.97433814 39.35971791 18.54651694 39.40063103 17.11914062 39.45263672 C15.0633399 39.52564914 13.00998787 39.55948862 10.953125 39.5859375 C9.71723633 39.6173584 8.48134766 39.6487793 7.20800781 39.68115234 C4 39 4 39 1.63085938 36.16015625 C-4.60145406 24.0836495 -3.53044437 12.60872991 0 0 Z " fill="#566691" transform="translate(129,149)"/>
<path d="M0 0 C1.875 0.125 1.875 0.125 4 1 C5.89385576 5.18641799 6.45544122 9.46201017 7 14 C7.66 14 8.32 14 9 14 C8.67 14.99 8.34 15.98 8 17 C7.01 17.33 6.02 17.66 5 18 C3.79117904 20.00016466 3.79117904 20.00016466 3 22 C2.34 22 1.68 22 1 22 C0.01 19.03 -0.98 16.06 -2 13 C-2.66 13 -3.32 13 -4 13 C-4 9.37 -4 5.74 -4 2 C-3.01 2.33 -2.02 2.66 -1 3 C-0.67 2.01 -0.34 1.02 0 0 Z " fill="#174184" transform="translate(323,145)"/>
<path d="M0 0 C0.33 0 0.66 0 1 0 C1.33 19.14 1.66 38.28 2 58 C5.96 58.495 5.96 58.495 10 59 C9.99419922 57.87424561 9.98839844 56.74849121 9.98242188 55.58862305 C9.93948105 43.32183363 10.16517174 31.07418072 10.5 18.8125 C10.548404 16.97201116 10.59658201 15.13151637 10.64453125 13.29101562 C10.76043155 8.86060448 10.87933454 4.43028381 11 0 C11.33 0 11.66 0 12 0 C12.06943717 7.6580332 12.12277913 15.31603387 12.15543652 22.97430992 C12.17110864 26.53018671 12.19237444 30.08584852 12.22631836 33.64160156 C12.26507759 37.72723482 12.27969633 41.81264141 12.29296875 45.8984375 C12.30845261 47.17866791 12.32393646 48.45889832 12.33988953 49.77792358 C12.34022942 51.54953354 12.34022942 51.54953354 12.34057617 53.35693359 C12.34723801 54.40062103 12.35389984 55.44430847 12.36076355 56.5196228 C12.24171158 57.33814728 12.12265961 58.15667175 12 59 C7.95807022 61.69461986 5.7948504 61.23200889 1 61 C0 60 0 60 -0.12025452 57.60191345 C-0.11803391 56.53824051 -0.11581329 55.47456757 -0.11352539 54.37866211 C-0.11344986 53.17749252 -0.11337433 51.97632294 -0.11329651 50.73875427 C-0.10813522 49.4314888 -0.10297394 48.12422333 -0.09765625 46.77734375 C-0.09579198 45.43355868 -0.09436812 44.08977293 -0.09336853 42.74598694 C-0.08954402 39.20317723 -0.07971432 35.6604083 -0.06866455 32.11761475 C-0.05844899 28.50484773 -0.0538706 24.89207416 -0.04882812 21.27929688 C-0.03809198 14.1861812 -0.02101636 7.09309326 0 0 Z " fill="#60739A" transform="translate(437,151)"/>
<path d="M0 0 C-1.98 0.99 -1.98 0.99 -4 2 C-4.495 1.01 -4.495 1.01 -5 0 C-7.27057377 -0.05398987 -9.54151288 -0.09278742 -11.8125 -0.125 C-13.07707031 -0.14820313 -14.34164062 -0.17140625 -15.64453125 -0.1953125 C-19.1338024 -0.27581918 -19.1338024 -0.27581918 -22 2 C-22.99 2 -23.98 2 -25 2 C-25.66 3.32 -26.32 4.64 -27 6 C-27.33 5.34 -27.66 4.68 -28 4 C-30.24847093 4.83895402 -30.24847093 4.83895402 -30.875 7.375 C-32.14548338 10.33946122 -33.25824559 11.37208332 -36 13 C-36.66 13 -37.32 13 -38 13 C-38.04125 13.61875 -38.0825 14.2375 -38.125 14.875 C-38.41375 15.57625 -38.7025 16.2775 -39 17 C-42.0625 18.25 -42.0625 18.25 -45 19 C-44 17 -44 17 -43 15 C-42.62875 14.071875 -42.2575 13.14375 -41.875 12.1875 C-37.08669105 4.04737478 -29.31993561 -0.10401932 -20.5 -2.75 C-12.95095793 -3.50490421 -7.08868641 -2.81536482 0 0 Z " fill="#2F497C" transform="translate(175,130)"/>
<path d="M0 0 C0.33 0 0.66 0 1 0 C1.33 19.14 1.66 38.28 2 58 C3.98 58 5.96 58 8 58 C7.99476318 57.13125244 7.98952637 56.26250488 7.98413086 55.36743164 C7.88795248 36.880487 8.04284505 18.46850844 9 0 C9.33 0 9.66 0 10 0 C10.02516911 5.49112636 10.04307576 10.9822174 10.05493164 16.47338867 C10.05988655 18.3321186 10.06665237 20.19084479 10.07543945 22.04956055 C10.13381146 34.73688885 9.80796697 47.33759998 9 60 C2.84765625 60.09765625 2.84765625 60.09765625 1 60 C0 59 0 59 -0.12025452 56.63987732 C-0.11803391 55.59396927 -0.11581329 54.54806122 -0.11352539 53.47045898 C-0.11344986 52.28931015 -0.11337433 51.10816132 -0.11329651 49.89122009 C-0.10813522 48.6058284 -0.10297394 47.32043671 -0.09765625 45.99609375 C-0.0962413 44.68794205 -0.09482635 43.37979034 -0.09336853 42.03199768 C-0.0895441 38.54837141 -0.07971446 35.06478661 -0.06866455 31.58117676 C-0.05844882 28.02873292 -0.05387056 24.47628241 -0.04882812 20.92382812 C-0.03809212 13.94920168 -0.0210166 6.97460283 0 0 Z " fill="#16346F" transform="translate(438,150)"/>
<path d="M0 0 C3 1 3 1 4.1875 2.6875 C5.2048517 5.58303946 5.19886794 7.95069165 5 11 C4.67 11.66 4.34 12.32 4 13 C4.66 13.33 5.32 13.66 6 14 C3.75 16.0625 3.75 16.0625 1 18 C-1.3125 17.75 -1.3125 17.75 -3 17 C-3 16.01 -3 15.02 -3 14 C-3.66 14 -4.32 14 -5 14 C-6.4783226 11.04335481 -6.06032783 8.25770263 -6 5 C-4.35 5 -2.7 5 -1 5 C-0.67 3.35 -0.34 1.7 0 0 Z " fill="#153977" transform="translate(528,181)"/>
<path d="M0 0 C6.93 0 13.86 0 21 0 C21 0.33 21 0.66 21 1 C12.585 1.495 12.585 1.495 4 2 C3.95101563 3.63710937 3.90203125 5.27421875 3.8515625 6.9609375 C3.77654361 9.098976 3.7009954 11.23699598 3.625 13.375 C3.5940625 14.45523438 3.563125 15.53546875 3.53125 16.6484375 C3.47324219 18.1953125 3.47324219 18.1953125 3.4140625 19.7734375 C3.3826416 20.72653809 3.3512207 21.67963867 3.31884766 22.66162109 C3 25 3 25 1 27 C-1.12890625 27.23046875 -1.12890625 27.23046875 -3.5625 27.1875 C-4.36816406 27.18105469 -5.17382812 27.17460937 -6.00390625 27.16796875 C-8 27 -8 27 -9 26 C-9.04063832 24.33382885 -9.042721 22.66611905 -9 21 C-8.67 21.66 -8.34 22.32 -8 23 C-5.36 23 -2.72 23 0 23 C0 15.41 0 7.82 0 0 Z " fill="#35507C" transform="translate(368,185)"/>
<path d="M0 0 C0.3403125 0.8353125 0.3403125 0.8353125 0.6875 1.6875 C2.36718835 4.6469509 4.54133285 6.66126784 7 9 C8 10 9 11 10 12 C3.25 12.125 3.25 12.125 1 11 C-0.04214691 15.61507774 -0.04214691 15.61507774 1 20 C3.46278801 20 4.85224119 19.14547137 7 18 C7.99 18.99 8.98 19.98 10 21 C9.34 21.33 8.68 21.66 8 22 C8 22.66 8 23.32 8 24 C0.70235624 22.95747946 -4.47855974 18.65180033 -9 13 C-9.703125 10.77734375 -9.703125 10.77734375 -10 9 C-9.34 9 -8.68 9 -8 9 C-7.67 9.99 -7.34 10.98 -7 12 C-3.48283697 12 -2.62878252 11.17554415 0 9 C-0.33 8.01 -0.66 7.02 -1 6 C-0.72428861 3.99124558 -0.39764263 1.98821313 0 0 Z " fill="#445E8E" transform="translate(533,186)"/>
<path d="M0 0 C0.33 0 0.66 0 1 0 C1 3.63 1 7.26 1 11 C1.969375 10.979375 2.93875 10.95875 3.9375 10.9375 C7 11 7 11 8 12 C10.21687994 12.15873955 12.43855298 12.25133837 14.66015625 12.31640625 C15.65685585 12.3475779 15.65685585 12.3475779 16.6736908 12.37937927 C18.80318543 12.44493658 20.93280668 12.50378785 23.0625 12.5625 C24.50326847 12.60567939 25.94402399 12.64929349 27.38476562 12.69335938 C30.9230404 12.80062393 34.46145869 12.90187371 38 13 C38 13.33 38 13.66 38 14 C28.43 14 18.86 14 9 14 C8.67 15.98 8.34 17.96 8 20 C7.34 18.68 6.68 17.36 6 16 C4.02 16 2.04 16 0 16 C-0.33 15.01 -0.66 14.02 -1 13 C-1.66 13 -2.32 13 -3 13 C-3.33 15.31 -3.66 17.62 -4 20 C-4.66 20 -5.32 20 -6 20 C-4.38808348 13.14078075 -2.64031672 6.53792711 0 0 Z " fill="#657EB7" transform="translate(293,178)"/>
<path d="M0 0 C0 0.33 0 0.66 0 1 C-3.96 0.67 -7.92 0.34 -12 0 C-12 -0.66 -12 -1.32 -12 -2 C-15.63 -2 -19.26 -2 -23 -2 C-23.66 -0.35 -24.32 1.3 -25 3 C-30.18918919 7 -30.18918919 7 -33 7 C-33 6.01 -33 5.02 -33 4 C-34.32 4.99 -35.64 5.98 -37 7 C-37.66 6.67 -38.32 6.34 -39 6 C-27.15787082 -6.07367919 -15.03632604 -5.69904743 0 0 Z " fill="#324F8E" transform="translate(246,131)"/>
<path d="M0 0 C0.33 0 0.66 0 1 0 C1 1.98 1 3.96 1 6 C1.99 5.67 2.98 5.34 4 5 C4.66 6.65 5.32 8.3 6 10 C6.66 9.67 7.32 9.34 8 9 C8 13.29 8 17.58 8 22 C10.97 19.525 10.97 19.525 14 17 C14.3125 19.8125 14.3125 19.8125 14 23 C11.6875 24.9375 11.6875 24.9375 9 26 C6 25 6 25 5.05078125 23.109375 C2.58936253 15.24325381 2.58936253 15.24325381 3 11 C1.68 10.34 0.36 9.68 -1 9 C-1.125 2.25 -1.125 2.25 0 0 Z " fill="#324882" transform="translate(213,174)"/>
<path d="M0 0 C6.51233398 8.58444024 7.9375621 17.28906331 7 28 C4.94507716 40.41398594 4.94507716 40.41398594 1 45 C0.34 44.67 -0.32 44.34 -1 44 C-0.525625 42.865625 -0.05125 41.73125 0.4375 40.5625 C2.1348234 36.08701048 2.68094105 31.75287814 3 27 C3.66 27 4.32 27 5 27 C4.88566637 24.74943278 4.75813564 22.49953326 4.625 20.25 C4.55539062 18.99703125 4.48578125 17.7440625 4.4140625 16.453125 C4.03883772 13.32389193 3.48646062 11.68288015 2 9 C2 8.01 2 7.02 2 6 C1.01 5.67 0.02 5.34 -1 5 C-0.67 3.35 -0.34 1.7 0 0 Z " fill="#3B4C77" transform="translate(256,142)"/>
<path d="M0 0 C0.66 1.32 1.32 2.64 2 4 C3.32 3.67 4.64 3.34 6 3 C5.63265306 9.36734694 5.63265306 9.36734694 2.5625 12.4375 C0 14 0 14 -2 14 C-1.67 12.35 -1.34 10.7 -1 9 C-1.66 9 -2.32 9 -3 9 C-3 9.66 -3 10.32 -3 11 C-4.65 10.67 -6.3 10.34 -8 10 C-7.67 8.35 -7.34 6.7 -7 5 C-6.34 5 -5.68 5 -5 5 C-5 4.34 -5 3.68 -5 3 C-2.5 1.375 -2.5 1.375 0 0 Z " fill="#143676" transform="translate(577,189)"/>
<path d="M0 0 C2.92975416 1.46487708 4.19055065 3.28164926 6 6 C6.48583984 9.19799805 6.48583984 9.19799805 6.4609375 12.76171875 C6.45707031 14.04498047 6.45320312 15.32824219 6.44921875 16.65039062 C6.43681152 17.31272705 6.4244043 17.97506348 6.41162109 18.6574707 C6.37491748 20.69207433 6.37060335 22.72486418 6.37109375 24.75976562 C6.28078133 34.71921867 6.28078133 34.71921867 4 37 C3.01 37 2.02 37 1 37 C1 37.66 1 38.32 1 39 C0.34 38.67 -0.32 38.34 -1 38 C-0.525625 37.278125 -0.05125 36.55625 0.4375 35.8125 C3.38344954 30.50979082 3.21108038 25.05051275 3.25 19.125 C3.270625 18.34769531 3.29125 17.57039063 3.3125 16.76953125 C3.3487853 11.37209225 2.31358352 7.85852539 0 3 C0 2.01 0 1.02 0 0 Z " fill="#526492" transform="translate(571,155)"/>
<path d="M0 0 C4.11079768 1.89729124 6.02761555 3.95661187 8 8 C9.04971839 11.291974 9.10348975 14.3068611 9.0625 17.75 C9.05347656 18.73484375 9.04445313 19.7196875 9.03515625 20.734375 C9.02355469 21.48203125 9.01195312 22.2296875 9 23 C8.67 23 8.34 23 8 23 C8 19.7 8 16.4 8 13 C7.34 13 6.68 13 6 13 C5.89042969 12.43410156 5.78085937 11.86820313 5.66796875 11.28515625 C5.50941406 10.55167969 5.35085938 9.81820312 5.1875 9.0625 C5.03667969 8.33160156 4.88585937 7.60070312 4.73046875 6.84765625 C4.48941406 6.23792969 4.24835938 5.62820312 4 5 C3.01 4.67 2.02 4.34 1 4 C1 5.32 1 6.64 1 8 C0.01 7.67 -0.98 7.34 -2 7 C-2.33 7 -2.66 7 -3 7 C-3.99 7 -4.98 7 -6 7 C-6.33 7.66 -6.66 8.32 -7 9 C-8.65 7.68 -10.3 6.36 -12 5 C-10.68 4.67 -9.36 4.34 -8 4 C-8.33 3.01 -8.66 2.02 -9 1 C-7.88625 1.020625 -6.7725 1.04125 -5.625 1.0625 C-2.16784079 1.26380718 -2.16784079 1.26380718 0 0 Z " fill="#264A8F" transform="translate(404,145)"/>
<path d="M0 0 C2.69173926 2.69173926 2.85698792 4.21017994 3 8 C2.360625 8.969375 1.72125 9.93875 1.0625 10.9375 C-2.50455577 16.38648519 -1.44596043 23.7711756 -1 30 C-0.67 30.99 -0.34 31.98 0 33 C-0.4375 35.6875 -0.4375 35.6875 -1 38 C-5.71966399 30.92050402 -5.19093194 19.17731857 -3.60302734 10.94091797 C-2.64748281 7.20594849 -1.3985119 3.5899301 0 0 Z " fill="#394D7B" transform="translate(523,153)"/>
<path d="M0 0 C4.47915328 -0.02886338 8.95828291 -0.04675187 13.4375 -0.0625 C14.71689453 -0.07087891 15.99628906 -0.07925781 17.31445312 -0.08789062 C19.13686523 -0.09272461 19.13686523 -0.09272461 20.99609375 -0.09765625 C22.12200928 -0.10289307 23.2479248 -0.10812988 24.40795898 -0.11352539 C27 0 27 0 28 1 C28.0979057 2.49738124 28.12974864 3.99942892 28.125 5.5 C28.12886719 6.72203125 28.12886719 6.72203125 28.1328125 7.96875 C28 10 28 10 27 11 C25.43827255 11.08685603 23.87270656 11.10702219 22.30859375 11.09765625 C21.36435547 11.09443359 20.42011719 11.09121094 19.44726562 11.08789062 C18.45404297 11.07951172 17.46082031 11.07113281 16.4375 11.0625 C15.44041016 11.05798828 14.44332031 11.05347656 13.41601562 11.04882812 C10.94395151 11.03700007 8.47200482 11.02051849 6 11 C6 10.67 6 10.34 6 10 C10.95 9.67 15.9 9.34 21 9 C21.33 8.01 21.66 7.02 22 6 C22.99 6 23.98 6 25 6 C25 4.68 25 3.36 25 2 C16.75 1.67 8.5 1.34 0 1 C0 0.67 0 0.34 0 0 Z " fill="#4F6891" transform="translate(443,139)"/>
<path d="M0 0 C0.66 0.33 1.32 0.66 2 1 C1.25 3.4375 1.25 3.4375 0 6 C-2.0625 6.6875 -2.0625 6.6875 -4 7 C-4.33 7.66 -4.66 8.32 -5 9 C-5.66 9 -6.32 9 -7 9 C-6.7525 9.7425 -6.505 10.485 -6.25 11.25 C-6.1675 12.1575 -6.085 13.065 -6 14 C-7.9375 16.3125 -7.9375 16.3125 -10 18 C-10.33 16.35 -10.66 14.7 -11 13 C-11.33 13.99 -11.66 14.98 -12 16 C-12.8125 13.8125 -12.8125 13.8125 -13 11 C-10.47494414 7.91382062 -8.80132605 6.26710868 -5 5 C-4.67 4.01 -4.34 3.02 -4 2 C-2.0625 0.75 -2.0625 0.75 0 0 Z " fill="#2D4A83" transform="translate(537,140)"/>
<path d="M0 0 C2.31 0 4.62 0 7 0 C7 0.99 7 1.98 7 3 C5.68 3 4.36 3 3 3 C3 3.99 3 4.98 3 6 C4.66289062 6.07347656 4.66289062 6.07347656 6.359375 6.1484375 C7.82294065 6.22349215 9.28648112 6.29903881 10.75 6.375 C11.47960937 6.4059375 12.20921875 6.436875 12.9609375 6.46875 C16.82991759 6.67978528 19.62577514 7.12907766 23 9 C19.72966072 9.19689005 16.45872059 9.38089008 13.1875 9.5625 C11.7943457 9.64661133 11.7943457 9.64661133 10.37304688 9.73242188 C9.48037109 9.78076172 8.58769531 9.82910156 7.66796875 9.87890625 C6.84578857 9.9260376 6.0236084 9.97316895 5.17651367 10.02172852 C3 10 3 10 0 9 C-1.125 2.25 -1.125 2.25 0 0 Z " fill="#1C3A71" transform="translate(479,201)"/>
<path d="M0 0 C0.99 0 1.98 0 3 0 C3 1.32 3 2.64 3 4 C3.61875 4.28875 4.2375 4.5775 4.875 4.875 C7 6 7 6 9 8 C10.32338632 8.68620031 11.65949948 9.34786461 13 10 C15.34611533 11.31180642 17.67164272 12.65671695 20 14 C20 15.65 20 17.3 20 19 C15.42817495 17.7141742 12.63247013 15.06833164 9.203125 11.953125 C5.62024232 8.77681057 1.80760895 5.89977626 -2 3 C-1.01 2.67 -0.02 2.34 1 2 C0.67 1.34 0.34 0.68 0 0 Z " fill="#37497A" transform="translate(157,213)"/>
<path d="M0 0 C0.66 0 1.32 0 2 0 C1.30460534 4.58960475 -0.050373 7.45087033 -2 12 C-16.85 11.505 -16.85 11.505 -32 11 C-30 9 -30 9 -27.20263672 8.77294922 C-26.04006348 8.78342285 -24.87749023 8.79389648 -23.6796875 8.8046875 C-21.79443359 8.81435547 -21.79443359 8.81435547 -19.87109375 8.82421875 C-17.89302734 8.84935547 -17.89302734 8.84935547 -15.875 8.875 C-14.53516279 8.88503017 -13.19531848 8.89415596 -11.85546875 8.90234375 C-8.57013427 8.92597925 -5.28515535 8.95892766 -2 9 C-1.34 6.03 -0.68 3.06 0 0 Z " fill="#1C3870" transform="translate(257,175)"/>
<path d="M0 0 C3.20700048 1.37442878 4.29973362 2.37455603 6.0625 5.3125 C4.7425 6.3025 3.4225 7.2925 2.0625 8.3125 C2.3925 8.9725 2.7225 9.6325 3.0625 10.3125 C0.1875 10 0.1875 10 -2.9375 9.3125 C-5.22763653 5.8772952 -5.11592973 4.327169 -4.9375 0.3125 C-2.9375 -0.6875 -2.9375 -0.6875 0 0 Z " fill="#143F85" transform="translate(536.9375,197.6875)"/>
<path d="M0 0 C2.88737326 2.88737326 4.26531277 6.33867245 6 10 C6.4125 10.825 6.825 11.65 7.25 12.5 C8 15 8 15 8 23 C0.74 23 -6.52 23 -14 23 C-13.67 22.34 -13.34 21.68 -13 21 C-6.73 21.33 -0.46 21.66 6 22 C4.40411112 17.00316924 4.40411112 17.00316924 2.79907227 12.00927734 C1.5398029 8.02353042 0.57024995 4.15561459 0 0 Z " fill="#5D7598" transform="translate(320,158)"/>
<path d="M0 0 C2 1 2 1 3 3 C3.66 3.33 4.32 3.66 5 4 C5 3.34 5 2.68 5 2 C5.66 2 6.32 2 7 2 C7 4.64 7 7.28 7 10 C6.34 10 5.68 10 5 10 C4.67 11.65 4.34 13.3 4 15 C3.33333333 13 2.66666667 11 2 9 C1.34 9 0.68 9 0 9 C-0.66 10.32 -1.32 11.64 -2 13 C-1.34 8.71 -0.68 4.42 0 0 Z " fill="#13387A" transform="translate(526,153)"/>
<path d="M0 0 C0.66 0 1.32 0 2 0 C1.61190041 5.62744404 1.27221205 9.93122662 -3 14 C-6.717458 14.50351737 -10.27286947 14.3470087 -14 14 C-14.33 12.35 -14.66 10.7 -15 9 C-14.67 9.99 -14.34 10.98 -14 12 C-10.37 12 -6.74 12 -3 12 C-3 11.34 -3 10.68 -3 10 C-3.99 9.67 -4.98 9.34 -6 9 C-4.625 7 -4.625 7 -3 5 C-2.34 5 -1.68 5 -1 5 C-0.67 3.35 -0.34 1.7 0 0 Z " fill="#5A6B92" transform="translate(298,198)"/>
<path d="M0 0 C3 3 3 3 3.1875 5.6875 C3.125625 6.450625 3.06375 7.21375 3 8 C3.66 8 4.32 8 5 8 C4.67 8.99 4.34 9.98 4 11 C3.01 11.33 2.02 11.66 1 12 C-0.20882096 14.00016466 -0.20882096 14.00016466 -1 16 C-1.66 16 -2.32 16 -3 16 C-3.69937202 14.5682384 -4.38412718 13.12932968 -5.0625 11.6875 C-5.44535156 10.88699219 -5.82820313 10.08648437 -6.22265625 9.26171875 C-7 7 -7 7 -6 4 C-5.54625 4.804375 -5.0925 5.60875 -4.625 6.4375 C-3.25274335 9.08856572 -3.25274335 9.08856572 -1 10 C-0.67 6.7 -0.34 3.4 0 0 Z " fill="#133B7B" transform="translate(327,151)"/>
<path d="M0 0 C0.66 0 1.32 0 2 0 C2 7.59 2 15.18 2 23 C1.34 23.33 0.68 23.66 0 24 C0 22.35 0 20.7 0 19 C-0.66 19 -1.32 19 -2 19 C-2.05428973 16.77110504 -2.09292338 14.54182529 -2.125 12.3125 C-2.15980469 10.45044922 -2.15980469 10.45044922 -2.1953125 8.55078125 C-2.01032021 5.18762143 -1.45767895 3.0014413 0 0 Z " fill="#3E5680" transform="translate(531,163)"/>
<path d="M0 0 C0.66 0 1.32 0 2 0 C3.2039337 3.75399798 3.09877617 7.33217412 3.0625 11.25 C3.05347656 12.51328125 3.04445313 13.7765625 3.03515625 15.078125 C3.02355469 16.04234375 3.01195312 17.0065625 3 18 C2.67 18 2.34 18 2 18 C1.67 23.61 1.34 29.22 1 35 C-1.42248355 31.36627467 -1.17281207 28.87919158 -0.9765625 24.70703125 C-0.95153656 24.00100266 -0.92651062 23.29497406 -0.90072632 22.56755066 C-0.81863741 20.31537051 -0.72200748 18.06408209 -0.625 15.8125 C-0.56674891 14.28454148 -0.50944586 12.75654651 -0.453125 11.22851562 C-0.3130757 7.48516539 -0.15998394 3.74254912 0 0 Z " fill="#495E91" transform="translate(487,149)"/>
<path d="M0 0 C-9.44036697 7 -9.44036697 7 -16 7 C-18.4375 6.0625 -18.4375 6.0625 -20 5 C-19.401875 4.71125 -18.80375 4.4225 -18.1875 4.125 C-15.80672208 2.95257974 -15.80672208 2.95257974 -13 1 C-10.37109375 0.33203125 -10.37109375 0.33203125 -7.4375 -0.1875 C-6.46683594 -0.36667969 -5.49617187 -0.54585937 -4.49609375 -0.73046875 C-2 -1 -2 -1 0 0 Z " fill="#354D83" transform="translate(210,235)"/>
<path d="M0 0 C2.86180443 2.86180443 3.71122635 6.37352028 5 10.125 C5.26039063 10.85976562 5.52078125 11.59453125 5.7890625 12.3515625 C7.47397542 17.18505006 8.82512279 22.01806874 10 27 C9.01 27 8.02 27 7 27 C5 20.375 5 20.375 5 17 C4.34 16.67 3.68 16.34 3 16 C2.59270772 13.67843403 2.25561323 11.3431213 2 9 C1.67 9 1.34 9 1 9 C0.67 6.03 0.34 3.06 0 0 Z " fill="#556A8F" transform="translate(336,171)"/>
<path d="M0 0 C0.99 0.495 0.99 0.495 2 1 C2 1.99 2 2.98 2 4 C1.34 4 0.68 4 0 4 C0 2.68 0 1.36 0 0 Z M-22 4 C-14.74 4 -7.48 4 0 4 C0 4.66 0 5.32 0 6 C-2.76565382 6.92188461 -4.38283702 7.11785222 -7.23046875 7.09765625 C-8.03291016 7.09443359 -8.83535156 7.09121094 -9.66210938 7.08789062 C-10.49548828 7.07951172 -11.32886719 7.07113281 -12.1875 7.0625 C-13.03248047 7.05798828 -13.87746094 7.05347656 -14.74804688 7.04882812 C-16.83206155 7.03705403 -18.91603977 7.0191189 -21 7 C-21.33 6.01 -21.66 5.02 -22 4 Z " fill="#15346C" transform="translate(328,177)"/>
<path d="M0 0 C0 0.33 0 0.66 0 1 C-3.96 0.67 -7.92 0.34 -12 0 C-12 -0.66 -12 -1.32 -12 -2 C-15.63 -2 -19.26 -2 -23 -2 C-23.33 -1.34 -23.66 -0.68 -24 0 C-25.32 -0.66 -26.64 -1.32 -28 -2 C-17.6793381 -5.51341682 -10.09637641 -3.82671458 0 0 Z " fill="#8A94B5" transform="translate(246,131)"/>
<path d="M0 0 C-1.98 0.99 -1.98 0.99 -4 2 C-4.33 1.34 -4.66 0.68 -5 0 C-7.29160319 -0.02692484 -9.58329546 -0.04636124 -11.875 -0.0625 C-13.78925781 -0.07990234 -13.78925781 -0.07990234 -15.7421875 -0.09765625 C-18.88664652 -0.23176569 -18.88664652 -0.23176569 -21 1 C-23.6723621 1.13415472 -26.32250488 1.04318541 -29 1 C-19.94591988 -5.03605341 -9.61681173 -3.81944296 0 0 Z " fill="#808EAA" transform="translate(175,130)"/>
<path d="M0 0 C3.91850942 1.65783091 6.90291096 4.10938356 10 7 C10.875 9.3125 10.875 9.3125 11 11 C9.02 10.34 7.04 9.68 5 9 C4.67 9.66 4.34 10.32 4 11 C3.32591692 9.73308493 2.66099503 8.46129251 2 7.1875 C1.62875 6.47980469 1.2575 5.77210938 0.875 5.04296875 C0 3 0 3 0 0 Z " fill="#495F89" transform="translate(178,133)"/>
<path d="M0 0 C0.66 0.66 1.32 1.32 2 2 C1.01 3.98 0.02 5.96 -1 8 C-3.97 8 -6.94 8 -10 8 C-10.66 9.65 -11.32 11.3 -12 13 C-12.66 13 -13.32 13 -14 13 C-12.125 7.125 -12.125 7.125 -11 6 C-9.72125 5.9175 -8.4425 5.835 -7.125 5.75 C-4.96452707 5.57850337 -4.96452707 5.57850337 -3 5 C-0.93545998 2.59256899 -0.93545998 2.59256899 0 0 Z " fill="#2B4074" transform="translate(214,183)"/>
<path d="M0 0 C0.495 1.485 0.495 1.485 1 3 C-2.6701006 4.15792475 -6.12275604 4.11388663 -9.953125 4.09765625 C-10.61334656 4.0962413 -11.27356812 4.09482635 -11.95379639 4.09336853 C-14.05257794 4.08779245 -16.15125095 4.07524447 -18.25 4.0625 C-19.67708179 4.0574819 -21.10416525 4.05291954 -22.53125 4.04882812 C-26.02086832 4.03783088 -29.51042356 4.0205828 -33 4 C-33 3.34 -33 2.68 -33 2 C-31.55379272 1.96241577 -31.55379272 1.96241577 -30.07836914 1.92407227 C-26.51312158 1.83014694 -22.94807567 1.72989061 -19.38305664 1.62768555 C-17.83785711 1.58428015 -16.29260786 1.54260929 -14.74731445 1.50268555 C-12.53060904 1.44511801 -10.3141552 1.38138576 -8.09765625 1.31640625 C-7.4028566 1.29969376 -6.70805695 1.28298126 -5.99220276 1.26576233 C-2.71237971 1.43497144 -2.71237971 1.43497144 0 0 Z " fill="#172F69" transform="translate(169,188)"/>
<path d="M0 0 C0.99 0 1.98 0 3 0 C2.125 4.875 2.125 4.875 1 6 C-1.3756852 6.0883967 -3.72208674 6.11530305 -6.09765625 6.09765625 C-7.16094398 6.09553383 -7.16094398 6.09553383 -8.24571228 6.09336853 C-10.51801712 6.08775443 -12.79022475 6.07519963 -15.0625 6.0625 C-16.59960796 6.05748681 -18.13671745 6.05292359 -19.67382812 6.04882812 C-23.44925642 6.03778042 -27.22461171 6.02050641 -31 6 C-31.33 6.66 -31.66 7.32 -32 8 C-32 7.01 -32 6.02 -32 5 C-16.655 4.505 -16.655 4.505 -1 4 C-0.67 2.68 -0.34 1.36 0 0 Z " fill="#46567F" transform="translate(167,184)"/>
<path d="M0 0 C2.31 0 4.62 0 7 0 C6.29875 0.515625 5.5975 1.03125 4.875 1.5625 C0.57939713 5.20442418 -2.87989387 9.31984081 -6 14 C-6 11.36 -6 8.72 -6 6 C-5.34 6 -4.68 6 -4 6 C-3.34 4.68 -2.68 3.36 -2 2 C-1.34 2 -0.68 2 0 2 C0 1.34 0 0.68 0 0 Z " fill="#54679B" transform="translate(539,149)"/>
<path d="M0 0 C3.63 0 7.26 0 11 0 C11 2.31 11 4.62 11 7 C8.23547967 8.38226016 5.9538637 8.09525387 2.875 8.0625 C1.77929688 8.05347656 0.68359375 8.04445312 -0.4453125 8.03515625 C-1.70988281 8.01775391 -1.70988281 8.01775391 -3 8 C-3 7.67 -3 7.34 -3 7 C-1.02 7 0.96 7 3 7 C3.33 6.01 3.66 5.02 4 4 C5.98 4 7.96 4 10 4 C10 3.01 10 2.02 10 1 C6.7 1 3.4 1 0 1 C0 0.67 0 0.34 0 0 Z " fill="#132F65" transform="translate(559,216)"/>
<path d="M0 0 C2.97 0 5.94 0 9 0 C8.67 2.97 8.34 5.94 8 9 C3.01222852 6.50611426 2.48741151 4.79715076 0 0 Z " fill="#204385" transform="translate(136,192)"/>
<path d="M0 0 C0.33 0.99 0.66 1.98 1 3 C8.31074682 4.66594452 15.52165033 5.51172287 23 6 C23 6.33 23 6.66 23 7 C15.74 7 8.48 7 1 7 C0.34 5.35 -0.32 3.7 -1 2 C-0.67 1.34 -0.34 0.68 0 0 Z " fill="#1B3670" transform="translate(132,179)"/>
<path d="M0 0 C0.33 0.66 0.66 1.32 1 2 C0.67 2.99 0.34 3.98 0 5 C-0.99 5 -1.98 5 -3 5 C-2.16666667 7.16666667 -2.16666667 7.16666667 0 8 C-2.475 9.485 -2.475 9.485 -5 11 C-5.33 10.01 -5.66 9.02 -6 8 C-6.99 8.33 -7.98 8.66 -9 9 C-9 8.34 -9 7.68 -9 7 C-9.66 7 -10.32 7 -11 7 C-11.33 5.02 -11.66 3.04 -12 1 C-10.2925002 2.28062485 -8.62626404 3.61767557 -7 5 C-7 5.66 -7 6.32 -7 7 C-6.21625 6.21625 -5.4325 5.4325 -4.625 4.625 C-3.08333333 3.08333333 -1.54166667 1.54166667 0 0 Z " fill="#526993" transform="translate(201,143)"/>
<path d="M0 0 C0.66 0 1.32 0 2 0 C1.67 1.65 1.34 3.3 1 5 C1.99 4.67 2.98 4.34 4 4 C2.125 7.875 2.125 7.875 1 9 C-0.99958364 9.04080783 -3.00045254 9.04254356 -5 9 C-4.7215625 8.1028125 -4.7215625 8.1028125 -4.4375 7.1875 C-3.77906313 4.83591238 -3.77906313 4.83591238 -5 2 C-4.01 1.67 -3.02 1.34 -2 1 C-1.34 1.33 -0.68 1.66 0 2 C0 1.34 0 0.68 0 0 Z " fill="#264880" transform="translate(574,198)"/>
<path d="M0 0 C0.33 0 0.66 0 1 0 C1 1.65 1 3.3 1 5 C1.99 5.33 2.98 5.66 4 6 C4.33 6.99 4.66 7.98 5 9 C7.10584438 9.80563638 7.10584438 9.80563638 9.5625 10.1875 C10.38878906 10.34605469 11.21507812 10.50460938 12.06640625 10.66796875 C12.70449219 10.77753906 13.34257812 10.88710937 14 11 C11.1004339 12.65876079 9.08364791 13.2361216 5.75 13.125 C3.89375 13.063125 3.89375 13.063125 2 13 C0.54815522 8.46298506 -0.23509196 4.81938524 0 0 Z " fill="#203666" transform="translate(178,174)"/>
<path d="M0 0 C0.99 0.33 1.98 0.66 3 1 C2.34 1 1.68 1 1 1 C1 1.66 1 2.32 1 3 C1.66 3.33 2.32 3.66 3 4 C2.01 4.495 2.01 4.495 1 5 C1.66 5.33 2.32 5.66 3 6 C3.66 5.34 4.32 4.68 5 4 C5.33 4.99 5.66 5.98 6 7 C6.66 7.33 7.32 7.66 8 8 C6.35 9.32 4.7 10.64 3 12 C0.36620292 8.34666857 -1.46884894 5.51478398 -2 1 C-1.34 0.67 -0.68 0.34 0 0 Z " fill="#163D84" transform="translate(526,187)"/>
<path d="M0 0 C0.33 0 0.66 0 1 0 C1.08071788 2.79224073 1.14035408 5.58216566 1.1875 8.375 C1.22520508 9.56609375 1.22520508 9.56609375 1.26367188 10.78125 C1.29004405 12.85586148 1.15486462 14.93100865 1 17 C0.01 17.66 -0.98 18.32 -2 19 C-3.09367096 14.23420205 -2.76635719 10.8441202 -1.5625 6.125 C-1.27503906 4.97257813 -0.98757813 3.82015625 -0.69140625 2.6328125 C-0.46324219 1.76398438 -0.23507812 0.89515625 0 0 Z " fill="#203870" transform="translate(586,167)"/>
<path d="M0 0 C1.4375 1.875 1.4375 1.875 2 4 C1.67 4.99 1.34 5.98 1 7 C0.65179959 8.66362417 0.31595508 10.32995171 0 12 C-2.18975773 8.71536341 -2.99806563 5.79303725 -4 2 C-5.32 2 -6.64 2 -8 2 C-8 1.34 -8 0.68 -8 0 C-5.04063954 -1.47968023 -3.13239866 -0.84835797 0 0 Z " fill="#425489" transform="translate(220,171)"/>
<path d="M0 0 C2.475 0.99 2.475 0.99 5 2 C5 1.34 5 0.68 5 0 C5.66 0 6.32 0 7 0 C6.67 2.64 6.34 5.28 6 8 C5.34 8 4.68 8 4 8 C3.34 9.32 2.68 10.64 2 12 C1.67 11.01 1.34 10.02 1 9 C1.66 9 2.32 9 3 9 C3 8.01 3 7.02 3 6 C2.01 6.66 1.02 7.32 0 8 C0 5.36 0 2.72 0 0 Z " fill="#163E81" transform="translate(309,144)"/>
<path d="M0 0 C0.33 0.99 0.66 1.98 1 3 C3.79172239 4.03316488 3.79172239 4.03316488 7.0625 4.6875 C8.71958984 5.06455078 8.71958984 5.06455078 10.41015625 5.44921875 C11.26480469 5.63097656 12.11945312 5.81273437 13 6 C13 6.33 13 6.66 13 7 C15.97 7.495 15.97 7.495 19 8 C19 8.33 19 8.66 19 9 C16.93816367 9.08150744 14.87538651 9.1394194 12.8125 9.1875 C11.66394531 9.22230469 10.51539063 9.25710937 9.33203125 9.29296875 C5.67848732 8.97173101 3.8568182 8.26864974 1 6 C0.1875 2.8125 0.1875 2.8125 0 0 Z " fill="#4D628B" transform="translate(549,216)"/>
<path d="M0 0 C2.65554859 2.65554859 3.36073753 5.28217644 4.625 8.8125 C5.07101562 10.03582031 5.51703125 11.25914062 5.9765625 12.51953125 C6.88236794 15.59996121 7.22945124 17.82994999 7 21 C6.67 20.01 6.34 19.02 6 18 C5.34 18 4.68 18 4 18 C3.566875 16.453125 3.566875 16.453125 3.125 14.875 C2.45283326 12.49360925 1.71496689 10.20824135 0.875 7.875 C0.02071976 5.0680792 -0.17121566 2.91066626 0 0 Z " fill="#7085A6" transform="translate(326,141)"/>
<path d="M0 0 C0.33 0 0.66 0 1 0 C0.67 4.29 0.34 8.58 0 13 C-0.99 13 -1.98 13 -3 13 C-3.33 15.31 -3.66 17.62 -4 20 C-4.66 20 -5.32 20 -6 20 C-4.38808348 13.14078075 -2.64031672 6.53792711 0 0 Z " fill="#6B81A8" transform="translate(293,178)"/>
<path d="M0 0 C-2.45721672 1.63814448 -4.34567811 2.61952199 -7.0625 3.625 C-7.75472656 3.88539063 -8.44695313 4.14578125 -9.16015625 4.4140625 C-11 5 -11 5 -13 5 C-13.33 5.99 -13.66 6.98 -14 8 C-14 6.02 -14 4.04 -14 2 C-8.77729131 -0.66464729 -5.9180497 -1.32854177 0 0 Z " fill="#4F6493" transform="translate(573,207)"/>
<path d="M0 0 C2.69173926 2.69173926 2.85698792 4.21017994 3 8 C1.90331933 10.56921903 0.55038088 12.65093806 -1 15 C-1.33 15 -1.66 15 -2 15 C-2.21755666 9.5610835 -2.10428384 5.12919186 0 0 Z " fill="#28437C" transform="translate(523,153)"/>
<path d="M0 0 C4.04003897 2.0746146 6.00506762 3.91038861 8 8 C9.04971839 11.291974 9.10348975 14.3068611 9.0625 17.75 C9.05347656 18.73484375 9.04445313 19.7196875 9.03515625 20.734375 C9.02355469 21.48203125 9.01195312 22.2296875 9 23 C8.67 23 8.34 23 8 23 C8 19.7 8 16.4 8 13 C7.34 13 6.68 13 6 13 C5.89042969 12.43410156 5.78085937 11.86820313 5.66796875 11.28515625 C5.50941406 10.55167969 5.35085938 9.81820312 5.1875 9.0625 C5.03667969 8.33160156 4.88585937 7.60070312 4.73046875 6.84765625 C4.48941406 6.23792969 4.24835938 5.62820312 4 5 C3.01 4.67 2.02 4.34 1 4 C0.3125 1.9375 0.3125 1.9375 0 0 Z " fill="#647799" transform="translate(404,145)"/>
<path d="M0 0 C0.66 0 1.32 0 2 0 C1.36244908 3.67255893 0.34054563 6.96292402 -1 10.4375 C-2.4376619 14.29210074 -3.55516426 17.88526945 -4 22 C-4.33 22 -4.66 22 -5 22 C-5.33 19.36 -5.66 16.72 -6 14 C-5.34 13.67 -4.68 13.34 -4 13 C-3.3838935 10.74998736 -3.3838935 10.74998736 -3 8.125 C-2.4277221 4.61979783 -2.01953816 3.02930724 0 0 Z " fill="#586794" transform="translate(313,152)"/>
<path d="M0 0 C2.26471571 4.22746933 3.13003282 7.75514299 3.09765625 12.546875 C3.09282227 13.81337891 3.09282227 13.81337891 3.08789062 15.10546875 C3.07951172 15.97816406 3.07113281 16.85085937 3.0625 17.75 C3.05798828 18.63816406 3.05347656 19.52632812 3.04882812 20.44140625 C3.037074 22.62767329 3.02064249 24.81380179 3 27 C2.67 27 2.34 27 2 27 C1.95101562 25.96359375 1.90203125 24.9271875 1.8515625 23.859375 C1.77650403 22.48955792 1.70095753 21.11976752 1.625 19.75 C1.5940625 19.06808594 1.563125 18.38617188 1.53125 17.68359375 C1.31197987 13.91945645 0.73902863 11.3041544 -1 8 C-0.96986729 5.24787881 -0.45482541 2.72895247 0 0 Z " fill="#808DB5" transform="translate(585,157)"/>
<path d="M0 0 C0.99 0 1.98 0 3 0 C2.34 2.31 1.68 4.62 1 7 C10.9 6.505 10.9 6.505 21 6 C21.33 7.32 21.66 8.64 22 10 C21.67 9.34 21.34 8.68 21 8 C14.07 8 7.14 8 0 8 C0 5.36 0 2.72 0 0 Z " fill="#183878" transform="translate(416,141)"/>
<path d="M0 0 C0.33 0.99 0.66 1.98 1 3 C0 4 0 4 -3.5625 4.0625 C-4.696875 4.041875 -5.83125 4.02125 -7 4 C-7.33 5.32 -7.66 6.64 -8 8 C-7.34 8.33 -6.68 8.66 -6 9 C-6.33 10.32 -6.66 11.64 -7 13 C-6.01 13.33 -5.02 13.66 -4 14 C-5.32 14 -6.64 14 -8 14 C-9.10647808 11.78704384 -9.19588368 10.45327301 -9.25 8 C-9.27578125 7.29875 -9.3015625 6.5975 -9.328125 5.875 C-9.21984375 5.25625 -9.1115625 4.6375 -9 4 C-5.5647952 1.70986347 -4.014669 1.82157027 0 2 C0 1.34 0 0.68 0 0 Z " fill="#8A99B3" transform="translate(486,197)"/>
<path d="M0 0 C1.2684375 0.12568359 1.2684375 0.12568359 2.5625 0.25390625 C8.92574237 0.82515187 14.70148662 1.11150236 21 0 C21 0.66 21 1.32 21 2 C17.17680034 3.21558143 13.3476101 3.21955854 9.375 3.25 C8.3540625 3.2809375 8.3540625 3.2809375 7.3125 3.3125 C5.3359375 3.328125 5.3359375 3.328125 2 3 C1.34 2.01 0.68 1.02 0 0 Z " fill="#7683A1" transform="translate(543,198)"/>
<path d="M0 0 C0.66 0.33 1.32 0.66 2 1 C1 8.42857143 1 8.42857143 0 12 C-1.32 12.33 -2.64 12.66 -4 13 C-3.34 9.7 -2.68 6.4 -2 3 C-1.34 3 -0.68 3 0 3 C0 2.01 0 1.02 0 0 Z " fill="#174478" transform="translate(167,170)"/>
<path d="M0 0 C0.33 1.65 0.66 3.3 1 5 C0.67 4.34 0.34 3.68 0 3 C-3.66881155 3.70554068 -6.70450534 5.27735506 -10 7 C-10.33 5.68 -10.66 4.36 -11 3 C-10.34 3 -9.68 3 -9 3 C-8.67 2.34 -8.34 1.68 -8 1 C-5.2303041 0.27113266 -2.87137415 0 0 0 Z " fill="#143773" transform="translate(580,149)"/>
<path d="M0 0 C0.33 0 0.66 0 1 0 C1.36220266 1.79005941 1.71452469 3.58212057 2.0625 5.375 C2.25972656 6.37273437 2.45695313 7.37046875 2.66015625 8.3984375 C3 11 3 11 2 13 C1.855625 13.680625 1.71125 14.36125 1.5625 15.0625 C1.376875 15.701875 1.19125 16.34125 1 17 C0.34 17.33 -0.32 17.66 -1 18 C-1.99989549 11.40609458 -2.00925164 6.38232875 0 0 Z M0 6 C1 8 1 8 1 8 Z " fill="#5D6F99" transform="translate(177,175)"/>
<path d="M0 0 C0.33 0 0.66 0 1 0 C1 1.98 1 3.96 1 6 C1.99 5.67 2.98 5.34 4 5 C6.09230769 9.43076923 6.09230769 9.43076923 5.625 12.3125 C5.41875 12.869375 5.2125 13.42625 5 14 C5 13.01 5 12.02 5 11 C3.02 10.34 1.04 9.68 -1 9 C-1.125 2.25 -1.125 2.25 0 0 Z " fill="#50698A" transform="translate(213,174)"/>
<path d="M0 0 C6.93126989 0.14747383 11.00617635 3.35981623 16 8 C16.33 8.66 16.66 9.32 17 10 C15.68 10.33 14.36 10.66 13 11 C12.79375 10.401875 12.5875 9.80375 12.375 9.1875 C10.49641974 6.19884959 8.14507592 5.4721632 5 4 C4.67 3.34 4.34 2.68 4 2 C1.98330173 0.86649466 1.98330173 0.86649466 0 0 Z " fill="#5E6D90" transform="translate(563,139)"/>
<path d="M0 0 C0.66 0.33 1.32 0.66 2 1 C1.4375 3.375 1.4375 3.375 0 6 C-3.5 7.375 -3.5 7.375 -7 8 C-7.66 7.67 -8.32 7.34 -9 7 C-8.360625 6.731875 -7.72125 6.46375 -7.0625 6.1875 C-4.66868314 5.11332248 -4.66868314 5.11332248 -4 2 C-2.0625 0.75 -2.0625 0.75 0 0 Z " fill="#455C8F" transform="translate(537,140)"/>
<path d="M0 0 C0.99 0.495 0.99 0.495 2 1 C2 1.99 2 2.98 2 4 C5.71736641 4.34900558 5.71736641 4.34900558 8.8125 2.5 C9.204375 2.005 9.59625 1.51 10 1 C12 3 12 3 12 6 C8.04 6 4.08 6 0 6 C0 4.02 0 2.04 0 0 Z " fill="#1A356B" transform="translate(337,204)"/>
<path d="M0 0 C2.50535913 2.34877419 3.90564909 4.0911787 4.265625 7.55859375 C4.25149142 10.04963675 4.17369194 12.51524028 4 15 C0.0379171 9.86947442 -0.12519655 6.51022067 0 0 Z " fill="#40598D" transform="translate(333,195)"/>
<path d="M0 0 C1.36511719 0.29197266 1.36511719 0.29197266 2.7578125 0.58984375 C3.45648438 0.74582031 4.15515625 0.90179688 4.875 1.0625 C4.875 1.3925 4.875 1.7225 4.875 2.0625 C3.616875 2.083125 2.35875 2.10375 1.0625 2.125 C-1.14199328 2.29292535 -1.14199328 2.29292535 -3.125 3.0625 C-4.81483507 5.35230909 -5.31462861 7.27684833 -6.125 10.0625 C-7.88047734 7.3776523 -8.13127277 6.14247785 -7.875 2.875 C-7.6275 1.946875 -7.38 1.01875 -7.125 0.0625 C-4.4030754 -1.2984623 -2.9418043 -0.64116248 0 0 Z " fill="#51699C" transform="translate(204.125,185.9375)"/>
<path d="M0 0 C1.125 3.75 1.125 3.75 0 6 C-3.63 6 -7.26 6 -11 6 C-10.67 5.34 -10.34 4.68 -10 4 C-7.67328146 3.31060191 -5.33932406 2.64533078 -3 2 C-2.01 1.34 -1.02 0.68 0 0 Z " fill="#304174" transform="translate(211,181)"/>
<path d="M0 0 C0.66 1.32 1.32 2.64 2 4 C1.67 4.66 1.34 5.32 1 6 C0.34 6 -0.32 6 -1 6 C-1 7.98 -1 9.96 -1 12 C-2.32 12 -3.64 12 -5 12 C-5.33 10.02 -5.66 8.04 -6 6 C-5.01 7.485 -5.01 7.485 -4 9 C-2.68 6.03 -1.36 3.06 0 0 Z " fill="#5C6C8E" transform="translate(199,196)"/>
<path d="M0 0 C1.65 0 3.3 0 5 0 C1.32442148 4.00972202 -2.18966896 6.45335415 -7 9 C-6.67 7.68 -6.34 6.36 -6 5 C-5.34 5.33 -4.68 5.66 -4 6 C-4 5.34 -4 4.68 -4 4 C-2.68 3.34 -1.36 2.68 0 2 C0 1.34 0 0.68 0 0 Z " fill="#495A83" transform="translate(219,224)"/>
<path d="M0 0 C0.33 0.66 0.66 1.32 1 2 C3.34907875 2.68931344 3.34907875 2.68931344 6.0625 3.125 C6.98160156 3.29257813 7.90070313 3.46015625 8.84765625 3.6328125 C9.91306641 3.81457031 9.91306641 3.81457031 11 4 C10.67 4.66 10.34 5.32 10 6 C8.52093108 6.02689216 7.04172517 6.04634621 5.5625 6.0625 C4.32693359 6.07990234 4.32693359 6.07990234 3.06640625 6.09765625 C1 6 1 6 0 5 C-0.04063832 3.33382885 -0.042721 1.66611905 0 0 Z " fill="#485E86" transform="translate(359,206)"/>
<path d="M0 0 C0.33 0.66 0.66 1.32 1 2 C1.66 2.33 2.32 2.66 3 3 C0.36 5.64 -2.28 8.28 -5 11 C-5.33 9.68 -5.66 8.36 -6 7 C-5.01 7 -4.02 7 -3 7 C-3.33 6.01 -3.66 5.02 -4 4 C-3.34 4 -2.68 4 -2 4 C-1.34 2.68 -0.68 1.36 0 0 Z " fill="#415380" transform="translate(241,204)"/>
<path d="M0 0 C0.33 0 0.66 0 1 0 C0.53328373 5.41390868 -0.24297811 9.20517932 -3 14 C-4.07735006 10.76794982 -3.92640423 9.66422565 -3.1875 6.4375 C-3.01605469 5.65246094 -2.84460938 4.86742187 -2.66796875 4.05859375 C-2 2 -2 2 0 0 Z " fill="#536591" transform="translate(586,184)"/>
<path d="M0 0 C1.2989839 0.90626784 2.58893167 1.82549537 3.875 2.75 C4.59429687 3.26046875 5.31359375 3.7709375 6.0546875 4.296875 C8.08570565 6.07503547 8.97855012 7.52701607 10 10 C6.83714265 8.91376616 3.8453913 7.77165873 1 6 C-0.0625 2.75 -0.0625 2.75 0 0 Z " fill="#6B799F" transform="translate(246,132)"/>
<path d="M0 0 C1.32 0.33 2.64 0.66 4 1 C1.36 4.63 -1.28 8.26 -4 12 C-5.24546405 9.50907189 -4.7767578 8.58919267 -4 6 C-3.34 6 -2.68 6 -2 6 C-2 5.01 -2 4.02 -2 3 C-1.34 3 -0.68 3 0 3 C0 2.01 0 1.02 0 0 Z " fill="#445985" transform="translate(249,194)"/>
<path d="M0 0 C1.134375 0.020625 2.26875 0.04125 3.4375 0.0625 C3.1075 1.3825 2.7775 2.7025 2.4375 4.0625 C1.4475 3.7325 0.4575 3.4025 -0.5625 3.0625 C-1.2225 4.7125 -1.8825 6.3625 -2.5625 8.0625 C-3.5525 7.7325 -4.5425 7.4025 -5.5625 7.0625 C-4.9025 7.0625 -4.2425 7.0625 -3.5625 7.0625 C-3.748125 6.093125 -3.93375 5.12375 -4.125 4.125 C-4.269375 3.114375 -4.41375 2.10375 -4.5625 1.0625 C-3.5625 0.0625 -3.5625 0.0625 0 0 Z " fill="#3C5081" transform="translate(185.5625,188.9375)"/>
<path d="M0 0 C2 2 2 2 2 5 C2.66 5.33 3.32 5.66 4 6 C3.67 7.98 3.34 9.96 3 12 C2.34 10.68 1.68 9.36 1 8 C0.34 8 -0.32 8 -1 8 C-1.33 5.69 -1.66 3.38 -2 1 C-1.34 0.67 -0.68 0.34 0 0 Z " fill="#354D82" transform="translate(177,167)"/>
<path d="M0 0 C2.97 0.495 2.97 0.495 6 1 C6.33 2.32 6.66 3.64 7 5 C5.35 5.66 3.7 6.32 2 7 C0.5393715 4.35261084 0 3.10551666 0 0 Z " fill="#16438C" transform="translate(325,164)"/>
<path d="M0 0 C0.66 0 1.32 0 2 0 C5.85880936 6.75291638 5.28506966 13.38758424 5 21 C4.67 21 4.34 21 4 21 C3.96261719 20.32195312 3.92523438 19.64390625 3.88671875 18.9453125 C3.41514671 12.26933186 2.18078865 6.32291553 0 0 Z " fill="#15316C" transform="translate(256,148)"/>
<path d="M0 0 C2.54384726 1.27192363 2.69368156 2.19948469 3.6875 4.8125 C3.95949219 5.49957031 4.23148438 6.18664062 4.51171875 6.89453125 C5.06812731 9.29376496 4.77364938 10.6894364 4 13 C3.67 11.68 3.34 10.36 3 9 C2.34 9 1.68 9 1 9 C-0.4783226 6.04335481 -0.06032783 3.25770263 0 0 Z " fill="#1D376D" transform="translate(522,186)"/>
<path d="M0 0 C2.56278699 -0.05420701 5.12441483 -0.09377007 7.6875 -0.125 C8.40873047 -0.14175781 9.12996094 -0.15851563 9.87304688 -0.17578125 C14.04876781 -0.21391569 17.2494138 0.1210081 21 2 C20.67 2.66 20.34 3.32 20 4 C18.35 4 16.7 4 15 4 C14.67 3.34 14.34 2.68 14 2 C10.72444392 1.52998967 10.72444392 1.52998967 6.9375 1.375 C5.00197266 1.26285156 5.00197266 1.26285156 3.02734375 1.1484375 C1.52880859 1.07496094 1.52880859 1.07496094 0 1 C0 0.67 0 0.34 0 0 Z " fill="#16326A" transform="translate(547,139)"/>
<path d="M0 0 C0.86882812 0.01417969 1.73765625 0.02835938 2.6328125 0.04296875 C3.49648437 0.04941406 4.36015625 0.05585938 5.25 0.0625 C7.54973476 0.21653208 9.55064739 0.58885099 11.7578125 1.23046875 C11.7578125 1.89046875 11.7578125 2.55046875 11.7578125 3.23046875 C6.4778125 2.90046875 1.1978125 2.57046875 -4.2421875 2.23046875 C-2.2421875 0.23046875 -2.2421875 0.23046875 0 0 Z " fill="#1C376F" transform="translate(158.2421875,128.76953125)"/>
<path d="M0 0 C1.98 0 3.96 0 6 0 C5.60196439 2.88575819 5.20990931 3.82189513 2.9375 5.75 C2.298125 6.1625 1.65875 6.575 1 7 C0.67 4.69 0.34 2.38 0 0 Z " fill="#113D80" transform="translate(551,203)"/>
<path d="M0 0 C0 1.32 0 2.64 0 4 C-1.98 4.33 -3.96 4.66 -6 5 C-6.33 4.34 -6.66 3.68 -7 3 C-7.99 2.34 -8.98 1.68 -10 1 C-6.59437148 0.22157062 -3.49234244 -0.09978121 0 0 Z " fill="#233F79" transform="translate(254,190)"/>
<path d="M0 0 C8.84097421 -0.17335244 8.84097421 -0.17335244 12 1 C13.3125 3.5625 13.3125 3.5625 14 6 C13.01 6 12.02 6 11 6 C10.608125 5.525625 10.21625 5.05125 9.8125 4.5625 C6.89978237 2.05153653 3.77458857 2.30939251 0 2 C0 1.34 0 0.68 0 0 Z " fill="#18366D" transform="translate(234,131)"/>
<path d="M0 0 C-0.33 0.66 -0.66 1.32 -1 2 C-1.99 2 -2.98 2 -4 2 C-4 2.66 -4 3.32 -4 4 C-4.66 4 -5.32 4 -6 4 C-6.33 4.99 -6.66 5.98 -7 7 C-7.99 6.67 -8.98 6.34 -10 6 C-9.34 4.68 -8.68 3.36 -8 2 C-7.34 2 -6.68 2 -6 2 C-6 1.34 -6 0.68 -6 0 C-3.50907189 -1.24546405 -2.58919267 -0.7767578 0 0 Z " fill="#153272" transform="translate(219,226)"/>
<path d="M0 0 C0.99 0 1.98 0 3 0 C2.01 2.97 1.02 5.94 0 9 C-0.99 9 -1.98 9 -3 9 C-2.01 6.03 -1.02 3.06 0 0 Z " fill="#3C507C" transform="translate(287,198)"/>
<path d="M0 0 C-4.455 2.97 -4.455 2.97 -9 6 C-9.66 5.67 -10.32 5.34 -11 5 C-10.67 4.34 -10.34 3.68 -10 3 C-9.34 3 -8.68 3 -8 3 C-8 2.01 -8 1.02 -8 0 C-2.25 -1.125 -2.25 -1.125 0 0 Z " fill="#627595" transform="translate(210,235)"/>
<path d="M0 0 C1.98 0 3.96 0 6 0 C6.33 0.66 6.66 1.32 7 2 C6.34 2 5.68 2 5 2 C5 2.66 5 3.32 5 4 C5.99 4.33 6.98 4.66 8 5 C5.36 4.67 2.72 4.34 0 4 C0 2.68 0 1.36 0 0 Z " fill="#13408A" transform="translate(390,144)"/>
<path d="M0 0 C0.66 0 1.32 0 2 0 C2.33 0.99 2.66 1.98 3 3 C3.99 3 4.98 3 6 3 C6.66 5.31 7.32 7.62 8 10 C6.84481082 9.09515208 5.70114594 8.1755794 4.5625 7.25 C3.60537109 6.48429688 3.60537109 6.48429688 2.62890625 5.703125 C0.81189446 3.80332371 0.39576803 2.56413092 0 0 Z " fill="#6D7FA1" transform="translate(523,195)"/>
<path d="M0 0 C1.32 0 2.64 0 4 0 C4 0.66 4 1.32 4 2 C3.34 2 2.68 2 2 2 C1.71125 3.134375 1.4225 4.26875 1.125 5.4375 C0.75375 6.613125 0.3825 7.78875 0 9 C-0.99 9.495 -0.99 9.495 -2 10 C-1.85950482 8.52031676 -1.71245174 7.04125484 -1.5625 5.5625 C-1.48128906 4.73878906 -1.40007812 3.91507813 -1.31640625 3.06640625 C-1 1 -1 1 0 0 Z " fill="#173470" transform="translate(131,148)"/>
<path d="M0 0 C0.66 0 1.32 0 2 0 C2.33 3.63 2.66 7.26 3 11 C1 9.375 1 9.375 -1 7 C-1.3125 3.8125 -1.3125 3.8125 -1 1 C-0.67 0.67 -0.34 0.34 0 0 Z " fill="#576FA2" transform="translate(316,145)"/>
<path d="M0 0 C0.33 0.99 0.66 1.98 1 3 C0.67 3.66 0.34 4.32 0 5 C0.66 5.33 1.32 5.66 2 6 C-0.64 6 -3.28 6 -6 6 C-6 3 -6 3 -4.6875 1.3125 C-3 0 -3 0 0 0 Z " fill="#2A4989" transform="translate(505,144)"/>
<path d="M0 0 C0.5775 0.165 1.155 0.33 1.75 0.5 C4.26664369 1.14462031 4.26664369 1.14462031 8 1 C9.75 2.5 9.75 2.5 11 4 C9.4375 4.75 9.4375 4.75 7 5 C4.49713591 3.86915563 2.32992278 2.47860484 0 1 C0 0.67 0 0.34 0 0 Z " fill="#1D3D7C" transform="translate(393,142)"/>
<path d="M0 0 C4.3177458 0.50797009 8.03302114 1.19682779 12 3 C12 3.33 12 3.66 12 4 C8.04 3.67 4.08 3.34 0 3 C0 2.01 0 1.02 0 0 Z " fill="#67789E" transform="translate(234,128)"/>
<path d="M0 0 C1.125 3.75 1.125 3.75 0 6 C-1.30915279 7.03145371 -2.64082143 8.03542166 -4 9 C-4.8125 7.3125 -4.8125 7.3125 -5 5 C-2.5625 2.25 -2.5625 2.25 0 0 Z " fill="#394F7D" transform="translate(226,191)"/>
<path d="M0 0 C0.66 0 1.32 0 2 0 C1.74438677 2.3431213 1.40729228 4.67843403 1 7 C0.01 7.495 0.01 7.495 -1 8 C-2.13350534 10.01669827 -2.13350534 10.01669827 -3 12 C-3.6875 10.25 -3.6875 10.25 -4 8 C-2.625 6 -2.625 6 -1 4 C-0.29485154 1.85266073 -0.29485154 1.85266073 0 0 Z " fill="#173577" transform="translate(299,168)"/>
<path d="M0 0 C5 6.59090909 5 6.59090909 5 10 C4.01 9.67 3.02 9.34 2 9 C2 8.01 2 7.02 2 6 C1.01 5.67 0.02 5.34 -1 5 C-0.67 3.35 -0.34 1.7 0 0 Z " fill="#61779B" transform="translate(256,142)"/>
<path d="M0 0 C0.33 0.66 0.66 1.32 1 2 C1.66 2 2.32 2 3 2 C2.875 3.875 2.875 3.875 2 6 C-1.0625 7.25 -1.0625 7.25 -4 8 C-2.66666667 5.33333333 -1.33333333 2.66666667 0 0 Z " fill="#425A8C" transform="translate(134,141)"/>
<path d="M0 0 C0.99 0.33 1.98 0.66 3 1 C3 3.97 3 6.94 3 10 C2.34 10 1.68 10 1 10 C0.26919734 8.02253397 -0.39421747 6.01927511 -1 4 C-0.67 3.34 -0.34 2.68 0 2 C-0.66 1.67 -1.32 1.34 -2 1 C-1.34 0.67 -0.68 0.34 0 0 Z " fill="#174190" transform="translate(553,209)"/>
<path d="M0 0 C3.63 0.33 7.26 0.66 11 1 C11 1.66 11 2.32 11 3 C7.37 3 3.74 3 0 3 C0 2.01 0 1.02 0 0 Z " fill="#1C3268" transform="translate(284,207)"/>
<path d="M0 0 C1.32 0.33 2.64 0.66 4 1 C4.33 2.98 4.66 4.96 5 7 C3.0625 6.3125 3.0625 6.3125 1 5 C0.25 2.375 0.25 2.375 0 0 Z " fill="#4D5C8B" transform="translate(150,208)"/>
<path d="M0 0 C1 3 1 3 -0.25 6.5 C-1.67322614 9.34645229 -2.58327112 11.04360043 -5 13 C-4.32829194 9.1936543 -3.27253436 5.64793184 -2 2 C-1.34 2 -0.68 2 0 2 C0 1.34 0 0.68 0 0 Z " fill="#536792" transform="translate(299,165)"/>
<path d="M0 0 C5.61 0 11.22 0 17 0 C17.33 0.66 17.66 1.32 18 2 C12 2 6 2 0 2 C0 1.34 0 0.68 0 0 Z " fill="#1B3364" transform="translate(308,140)"/>
<path d="M0 0 C3 1.75 3 1.75 6 4 C6 5.32 6 6.64 6 8 C2.83884224 6.63016497 2.0072908 6.0109362 0 3 C0 2.01 0 1.02 0 0 Z " fill="#253C72" transform="translate(138,193)"/>
<path d="M0 0 C0.268125 0.556875 0.53625 1.11375 0.8125 1.6875 C2.10122647 4.19712523 3.52926478 6.59334236 5 9 C2.03 8.505 2.03 8.505 -1 8 C-0.67 5.36 -0.34 2.72 0 0 Z " fill="#50658B" transform="translate(533,186)"/>
<path d="M0 0 C0.66 0 1.32 0 2 0 C2 1.32 2 2.64 2 4 C1.34 4 0.68 4 0 4 C0 4.66 0 5.32 0 6 C-0.66 6 -1.32 6 -2 6 C-1.67 6.99 -1.34 7.98 -1 9 C-1.66 9 -2.32 9 -3 9 C-3.33 7.68 -3.66 6.36 -4 5 C-3.34 5 -2.68 5 -2 5 C-1.34 3.35 -0.68 1.7 0 0 Z " fill="#153679" transform="translate(204,191)"/>
<path d="M0 0 C0.33 0 0.66 0 1 0 C1 1.65 1 3.3 1 5 C1.99 5.33 2.98 5.66 4 6 C4.33 6.99 4.66 7.98 5 9 C5.66 9.66 6.32 10.32 7 11 C4.625 10.75 4.625 10.75 2 10 C-0.42363044 6.88390372 -0.17392151 3.82627315 0 0 Z " fill="#122F6E" transform="translate(178,174)"/>
<path d="M0 0 C0.33 0 0.66 0 1 0 C1 2.31 1 4.62 1 7 C0.34 7 -0.32 7 -1 7 C-1.33 8.65 -1.66 10.3 -2 12 C-3.1171875 10.265625 -3.1171875 10.265625 -4 8 C-3.3203125 5.859375 -3.3203125 5.859375 -2.125 3.75 C-1.73570312 3.04359375 -1.34640625 2.3371875 -0.9453125 1.609375 C-0.63335937 1.07828125 -0.32140625 0.5471875 0 0 Z " fill="#1B376F" transform="translate(307,168)"/>
<path d="M0 0 C1.15006091 3.37299744 0.85199953 5.34853215 -0.3125 8.6875 C-0.57675781 9.47511719 -0.84101563 10.26273438 -1.11328125 11.07421875 C-2 13 -2 13 -4 14 C-3.36843005 8.94744036 -1.86540627 4.70406799 0 0 Z " fill="#6376A6" transform="translate(303,149)"/>
<path d="M0 0 C0.33 0 0.66 0 1 0 C1.19294408 4.82360189 0.75747614 8.49646738 -1 13 C-1.66 13 -2.32 13 -3 13 C-2.68991116 11.39536551 -2.37683713 9.79130769 -2.0625 8.1875 C-1.88847656 7.29417969 -1.71445312 6.40085938 -1.53515625 5.48046875 C-1 3 -1 3 0 0 Z " fill="#153575" transform="translate(304,150)"/>
<path d="M0 0 C1.7074998 1.28062485 3.37373596 2.61767557 5 4 C5 4.66 5 5.32 5 6 C5.66 6 6.32 6 7 6 C6.67 6.66 6.34 7.32 6 8 C5.01 8 4.02 8 3 8 C3 7.34 3 6.68 3 6 C2.34 6 1.68 6 1 6 C0.67 4.02 0.34 2.04 0 0 Z " fill="#7282A7" transform="translate(189,144)"/>
<path d="M0 0 C-0.33 1.65 -0.66 3.3 -1 5 C-1.33 4.01 -1.66 3.02 -2 2 C-4.31 1.67 -6.62 1.34 -9 1 C-5.64919071 -1.10976881 -3.77897651 -1.0497157 0 0 Z " fill="#5D7197" transform="translate(550,210)"/>
<path d="M0 0 C2.62386487 3.06117568 3 3.73173127 3 8 C3.66 8.33 4.32 8.66 5 9 C3.35 8.67 1.7 8.34 0 8 C0 5.36 0 2.72 0 0 Z " fill="#263F76" transform="translate(177,189)"/>
<path d="M0 0 C0.99 0.33 1.98 0.66 3 1 C3.33 3.97 3.66 6.94 4 10 C3.34 10 2.68 10 2 10 C0.39644899 6.49223216 -0.22036864 3.85645121 0 0 Z " fill="#1D3D7E" transform="translate(339,187)"/>
<path d="M0 0 C0.99 0 1.98 0 3 0 C2.125 4.875 2.125 4.875 1 6 C-0.99958364 6.04080783 -3.00045254 6.04254356 -5 6 C-4.360625 5.7525 -3.72125 5.505 -3.0625 5.25 C-0.81258459 4.18437567 -0.81258459 4.18437567 -0.25 1.875 C-0.1675 1.25625 -0.085 0.6375 0 0 Z " fill="#314C7C" transform="translate(167,184)"/>
<path d="M0 0 C-3.20336822 2.83374881 -5.78087253 3.5205537 -10 4 C-10 3.34 -10 2.68 -10 2 C-6.5980513 -0.09350689 -3.94727588 -0.17942163 0 0 Z " fill="#606C9C" transform="translate(404,182)"/>
<path d="M0 0 C0.66 0 1.32 0 2 0 C1.25 5.75 1.25 5.75 -1 8 C-1.625 5.125 -1.625 5.125 -2 2 C-1.34 1.34 -0.68 0.68 0 0 Z " fill="#42608D" transform="translate(410,169)"/>
<path d="M0 0 C-0.33 0.99 -0.66 1.98 -1 3 C-1.66 2.67 -2.32 2.34 -3 2 C-3.33 2.66 -3.66 3.32 -4 4 C-5.65 2.68 -7.3 1.36 -9 0 C-3.375 -1.125 -3.375 -1.125 0 0 Z " fill="#335289" transform="translate(572,150)"/>
<path d="M0 0 C0.33 0.99 0.66 1.98 1 3 C-2.9813783 4.3271261 -6.85045227 4.06915913 -11 4 C-11 3.67 -11 3.34 -11 3 C-10.28972656 2.86722656 -9.57945312 2.73445312 -8.84765625 2.59765625 C-7.92855469 2.42105469 -7.00945312 2.24445313 -6.0625 2.0625 C-4.68771484 1.80146484 -4.68771484 1.80146484 -3.28515625 1.53515625 C-1.04710156 1.22285012 -1.04710156 1.22285012 0 0 Z " fill="#143374" transform="translate(169,188)"/>
<path d="M0 0 C3.625 0.375 3.625 0.375 7 1 C4.39685311 2.73543126 3.01305957 3.61121812 0 4 C-0.66 3.34 -1.32 2.68 -2 2 C-1.34 1.34 -0.68 0.68 0 0 Z " fill="#455B95" transform="translate(566,206)"/>
<path d="M0 0 C0.99 0.33 1.98 0.66 3 1 C3.144375 1.78375 3.28875 2.5675 3.4375 3.375 C3.87798925 5.96421018 3.87798925 5.96421018 5 8 C4.01 8 3.02 8 2 8 C0.74335022 5.09399739 0 3.20395416 0 0 Z " fill="#677A9A" transform="translate(192,190)"/>
<path d="M0 0 C0.66 0 1.32 0 2 0 C1.47731534 2.76276177 0.89130413 5.3260876 0 8 C-0.66 8 -1.32 8 -2 8 C-2.20086443 4.28400809 -2.1519437 3.22791555 0 0 Z " fill="#495C8D" transform="translate(313,152)"/>
<path d="M0 0 C2.31 0 4.62 0 7 0 C5.35 1.32 3.7 2.64 2 4 C0.68 3.34 -0.64 2.68 -2 2 C-1.34 2 -0.68 2 0 2 C0 1.34 0 0.68 0 0 Z " fill="#425B88" transform="translate(539,149)"/>
<path d="M0 0 C2.64 0 5.28 0 8 0 C6.875 1.5 6.875 1.5 5 3 C1.8125 3.1875 1.8125 3.1875 -1 3 C-0.67 2.01 -0.34 1.02 0 0 Z " fill="#183672" transform="translate(539,140)"/>
<path d="M0 0 C0 0.66 0 1.32 0 2 C-3.21451269 3.60725635 -6.43612536 3.05748185 -10 3 C-6.26223701 0.50815801 -4.5227786 0 0 0 Z " fill="#6D7EA8" transform="translate(156,128)"/>
<path d="M0 0 C0.99 0 1.98 0 3 0 C3.33 2.31 3.66 4.62 4 7 C2.02 5.68 0.04 4.36 -2 3 C-1.01 2.67 -0.02 2.34 1 2 C0.67 1.34 0.34 0.68 0 0 Z " fill="#485B8D" transform="translate(157,213)"/>
<path d="M0 0 C0.66 0 1.32 0 2 0 C2.33 1.98 2.66 3.96 3 6 C1.35 6 -0.3 6 -2 6 C-1.33333333 4 -0.66666667 2 0 0 Z " fill="#143974" transform="translate(334,172)"/>
<path d="M0 0 C1.42944945 2.35438733 2.08661261 3.48032433 1.625 6.25 C1.41875 6.8275 1.2125 7.405 1 8 C0.34 6.68 -0.32 5.36 -1 4 C-1.99 4.495 -1.99 4.495 -3 5 C-3 3.68 -3 2.36 -3 1 C-2.01 0.67 -1.02 0.34 0 0 Z " fill="#6072A4" transform="translate(173,160)"/>
<path d="M0 0 C2.85356058 1.42678029 3.67172689 3.14421282 5 6 C4.1875 8.3125 4.1875 8.3125 3 10 C0 3.375 0 3.375 0 0 Z " fill="#6A77A5" transform="translate(571,155)"/>
<path d="M0 0 C2.56616632 3.84924948 2.55097676 6.4349304 3 11 C2.67 10.01 2.34 9.02 2 8 C1.34 8 0.68 8 0 8 C0 5.36 0 2.72 0 0 Z " fill="#63779C" transform="translate(330,151)"/>
<path d="M0 0 C3 2 3 2 3.51171875 3.9453125 C3.67447917 5.96354167 3.83723958 7.98177083 4 10 C1.7448078 7.7448078 1.02276532 5.9952413 0 3 C0 2.01 0 1.02 0 0 Z " fill="#193970" transform="translate(320,155)"/>
<path d="M0 0 C2.31 0.33 4.62 0.66 7 1 C6.67 1.99 6.34 2.98 6 4 C4.35 4 2.7 4 1 4 C0.67 2.68 0.34 1.36 0 0 Z " fill="#133874" transform="translate(448,145)"/>
<path d="M0 0 C3 1 3 1 4 3 C6.01669827 4.13350534 6.01669827 4.13350534 8 5 C5 6 5 6 2.875 5.3125 C1 4 1 4 0.25 1.875 C0.1675 1.25625 0.085 0.6375 0 0 Z " fill="#18316E" transform="translate(532,202)"/>
<path d="M0 0 C0.99 0.33 1.98 0.66 3 1 C2.6875 2.875 2.6875 2.875 2 5 C1.01 5.66 0.02 6.32 -1 7 C-0.67 4.69 -0.34 2.38 0 0 Z " fill="#324C77" transform="translate(579,195)"/>
<path d="M0 0 C0.66 0.33 1.32 0.66 2 1 C1.67 3.31 1.34 5.62 1 8 C0.34 8 -0.32 8 -1 8 C-0.67 5.36 -0.34 2.72 0 0 Z " fill="#293F72" transform="translate(167,170)"/>
<path d="M0 0 C0 1.98 0 3.96 0 6 C-0.433125 5.505 -0.86625 5.01 -1.3125 4.5 C-2.99740483 2.66781808 -2.99740483 2.66781808 -6 3 C-6 2.34 -6 1.68 -6 1 C-4 0 -4 0 0 0 Z " fill="#506591" transform="translate(218,170)"/>
<path d="M0 0 C0.33 0 0.66 0 1 0 C0.4140625 6.15234375 0.4140625 6.15234375 0 8 C-0.99 8.495 -0.99 8.495 -2 9 C-2 8.01 -2 7.02 -2 6 C-2.66 5.67 -3.32 5.34 -4 5 C-3.34 5 -2.68 5 -2 5 C-1.34 3.35 -0.68 1.7 0 0 Z " fill="#193877" transform="translate(310,157)"/>
<path d="M0 0 C1.98 0.66 3.96 1.32 6 2 C5.67 3.65 5.34 5.3 5 7 C3 6 3 6 2 3 C1.34 2.67 0.68 2.34 0 2 C0 1.34 0 0.68 0 0 Z " fill="#16366F" transform="translate(398,152)"/>
<path d="M0 0 C1.134375 0.020625 2.26875 0.04125 3.4375 0.0625 C3.4375 0.7225 3.4375 1.3825 3.4375 2.0625 C0.83167629 2.99315133 -0.20448224 3.21167407 -2.8125 2.125 C-3.39 1.774375 -3.9675 1.42375 -4.5625 1.0625 C-3.5625 0.0625 -3.5625 0.0625 0 0 Z " fill="#495F8D" transform="translate(218.5625,129.9375)"/>
<path d="" fill="#FFFFFF" transform="translate(0,0)"/>
<path d="" fill="#FFFFFF" transform="translate(0,0)"/>
<path d="" fill="#FFFFFF" transform="translate(0,0)"/>
<path d="" fill="#FFFFFF" transform="translate(0,0)"/>
<path d="" fill="#FFFFFF" transform="translate(0,0)"/>
<path d="" fill="#FFFFFF" transform="translate(0,0)"/>
<path d="" fill="#FFFFFF" transform="translate(0,0)"/>
<path d="" fill="#FFFFFF" transform="translate(0,0)"/>
<path d="" fill="#FFFFFF" transform="translate(0,0)"/>
<path d="" fill="#FFFFFF" transform="translate(0,0)"/>
<path d="" fill="#FFFFFF" transform="translate(0,0)"/>
<path d="" fill="#FFFFFF" transform="translate(0,0)"/>
<path d="" fill="#FFFFFF" transform="translate(0,0)"/>
<path d="" fill="#FFFFFF" transform="translate(0,0)"/>
<path d="" fill="#FFFFFF" transform="translate(0,0)"/>
<path d="" fill="#FFFFFF" transform="translate(0,0)"/>
<path d="" fill="#FFFFFF" transform="translate(0,0)"/>
<path d="" fill="#FFFFFF" transform="translate(0,0)"/>
<path d="" fill="#FFFFFF" transform="translate(0,0)"/>
<path d="" fill="#FFFFFF" transform="translate(0,0)"/>
<path d="" fill="#FFFFFF" transform="translate(0,0)"/>
<path d="" fill="#FFFFFF" transform="translate(0,0)"/>
<path d="" fill="#FFFFFF" transform="translate(0,0)"/>
<path d="" fill="#FFFFFF" transform="translate(0,0)"/>
<path d="" fill="#FFFFFF" transform="translate(0,0)"/>
<path d="" fill="#FFFFFF" transform="translate(0,0)"/>
<path d="" fill="#FFFFFF" transform="translate(0,0)"/>
<path d="" fill="#FFFFFF" transform="translate(0,0)"/>
<path d="" fill="#FFFFFF" transform="translate(0,0)"/>
<path d="" fill="#FFFFFF" transform="translate(0,0)"/>
<path d="" fill="#FFFFFF" transform="translate(0,0)"/>
<path d="" fill="#FFFFFF" transform="translate(0,0)"/>
<path d="" fill="#FFFFFF" transform="translate(0,0)"/>
<path d="" fill="#FFFFFF" transform="translate(0,0)"/>
<path d="" fill="#FFFFFF" transform="translate(0,0)"/>
<path d="" fill="#FFFFFF" transform="translate(0,0)"/>
<path d="" fill="#FFFFFF" transform="translate(0,0)"/>
<path d="" fill="#FFFFFF" transform="translate(0,0)"/>
<path d="" fill="#FFFFFF" transform="translate(0,0)"/>
<path d="" fill="#FFFFFF" transform="translate(0,0)"/>
<path d="" fill="#FFFFFF" transform="translate(0,0)"/>
<path d="" fill="#FFFFFF" transform="translate(0,0)"/>
<path d="" fill="#FFFFFF" transform="translate(0,0)"/>
<path d="" fill="#FFFFFF" transform="translate(0,0)"/>
<path d="" fill="#FFFFFF" transform="translate(0,0)"/>
<path d="" fill="#FFFFFF" transform="translate(0,0)"/>
<path d="" fill="#FFFFFF" transform="translate(0,0)"/>
<path d="" fill="#FFFFFF" transform="translate(0,0)"/>
<path d="" fill="#FFFFFF" transform="translate(0,0)"/>
<path d="" fill="#FFFFFF" transform="translate(0,0)"/>
<path d="" fill="#FFFFFF" transform="translate(0,0)"/>
<path d="" fill="#FFFFFF" transform="translate(0,0)"/>
<path d="" fill="#FFFFFF" transform="translate(0,0)"/>
<path d="" fill="#FFFFFF" transform="translate(0,0)"/>
<path d="" fill="#FFFFFF" transform="translate(0,0)"/>
<path d="" fill="#FFFFFF" transform="translate(0,0)"/>
<path d="" fill="#FFFFFF" transform="translate(0,0)"/>
<path d="" fill="#FFFFFF" transform="translate(0,0)"/>
<path d="" fill="#FFFFFF" transform="translate(0,0)"/>
<path d="" fill="#FFFFFF" transform="translate(0,0)"/>
<path d="" fill="#FFFFFF" transform="translate(0,0)"/>
<path d="" fill="#FFFFFF" transform="translate(0,0)"/>
<path d="" fill="#FFFFFF" transform="translate(0,0)"/>
<path d="" fill="#FFFFFF" transform="translate(0,0)"/>
<path d="" fill="#FFFFFF" transform="translate(0,0)"/>
<path d="" fill="#FFFFFF" transform="translate(0,0)"/>
<path d="" fill="#FFFFFF" transform="translate(0,0)"/>
<path d="" fill="#FFFFFF" transform="translate(0,0)"/>
<path d="" fill="#FFFFFF" transform="translate(0,0)"/>
<path d="" fill="#FFFFFF" transform="translate(0,0)"/>
<path d="" fill="#FFFFFF" transform="translate(0,0)"/>
<path d="" fill="#FFFFFF" transform="translate(0,0)"/>
<path d="" fill="#FFFFFF" transform="translate(0,0)"/>
<path d="" fill="#FFFFFF" transform="translate(0,0)"/>
<path d="" fill="#FFFFFF" transform="translate(0,0)"/>
<path d="" fill="#FFFFFF" transform="translate(0,0)"/>
</svg>
